G04 MADE WITH FRITZING*
G04 WWW.FRITZING.ORG*
G04 DOUBLE SIDED*
G04 HOLES PLATED*
G04 CONTOUR ON CENTER OF CONTOUR VECTOR*
%ASAXBY*%
%FSLAX23Y23*%
%MOIN*%
%OFA0B0*%
%SFA1.0B1.0*%
%ADD10C,0.049370*%
%ADD11C,0.088000*%
%ADD12C,0.084000*%
%ADD13C,0.080000*%
%ADD14C,0.090000*%
%ADD15C,0.088740*%
%ADD16R,0.088000X0.088000*%
%ADD17R,0.080000X0.079972*%
%ADD18R,0.090000X0.090000*%
%LNMASK0*%
G90*
G70*
G54D10*
X1179Y300D03*
X946Y298D03*
G54D11*
X2911Y475D03*
X2911Y375D03*
X2911Y275D03*
G54D10*
X2505Y224D03*
X2472Y290D03*
X2476Y156D03*
G54D12*
X671Y690D03*
X927Y690D03*
X671Y512D03*
X927Y512D03*
X671Y690D03*
X927Y690D03*
X671Y512D03*
X927Y512D03*
G54D13*
X1151Y74D03*
X1251Y74D03*
X1351Y74D03*
X1451Y74D03*
X1551Y74D03*
X1651Y74D03*
X1751Y74D03*
X1851Y74D03*
X1951Y74D03*
X2051Y74D03*
X2151Y74D03*
X2251Y74D03*
X2351Y74D03*
X2451Y74D03*
X2551Y74D03*
X1151Y674D03*
X1251Y674D03*
X1351Y674D03*
X1451Y674D03*
X1551Y674D03*
X1651Y674D03*
X1751Y674D03*
X1851Y674D03*
X1951Y674D03*
X2051Y674D03*
X2151Y674D03*
X2251Y674D03*
X2351Y674D03*
X2451Y674D03*
X2551Y674D03*
G54D11*
X1453Y241D03*
X1553Y241D03*
X1653Y241D03*
X1753Y241D03*
X1853Y241D03*
X1953Y241D03*
X2053Y241D03*
X2153Y241D03*
X2253Y241D03*
X2353Y241D03*
G54D14*
X863Y152D03*
X726Y152D03*
G54D11*
X317Y82D03*
X417Y82D03*
X517Y82D03*
X170Y520D03*
X170Y420D03*
X170Y320D03*
X170Y220D03*
G54D10*
X1091Y378D03*
G54D15*
X2911Y569D03*
X2914Y183D03*
G54D16*
X2911Y475D03*
G54D17*
X1151Y74D03*
G54D18*
X863Y152D03*
G04 End of Mask0*
M02*