G04 MADE WITH FRITZING*
G04 WWW.FRITZING.ORG*
G04 DOUBLE SIDED*
G04 HOLES PLATED*
G04 CONTOUR ON CENTER OF CONTOUR VECTOR*
%ASAXBY*%
%FSLAX23Y23*%
%MOIN*%
%OFA0B0*%
%SFA1.0B1.0*%
%ADD10C,0.075000*%
%ADD11C,0.039370*%
%ADD12C,0.078000*%
%ADD13C,0.070000*%
%ADD14C,0.080000*%
%ADD15C,0.074000*%
%ADD16R,0.078000X0.078000*%
%ADD17R,0.070000X0.069972*%
%ADD18R,0.080000X0.080000*%
%ADD19C,0.024000*%
%LNCOPPER1*%
G90*
G70*
G54D10*
X2690Y568D03*
X2752Y186D03*
X1037Y554D03*
G54D11*
X1179Y300D03*
X946Y298D03*
G54D12*
X2911Y475D03*
X2911Y375D03*
X2911Y275D03*
G54D11*
X2505Y224D03*
X2472Y290D03*
X2476Y156D03*
G54D13*
X1151Y74D03*
X1251Y74D03*
X1351Y74D03*
X1451Y74D03*
X1551Y74D03*
X1651Y74D03*
X1751Y74D03*
X1851Y74D03*
X1951Y74D03*
X2051Y74D03*
X2151Y74D03*
X2251Y74D03*
X2351Y74D03*
X2451Y74D03*
X2551Y74D03*
X1151Y674D03*
X1251Y674D03*
X1351Y674D03*
X1451Y674D03*
X1551Y674D03*
X1651Y674D03*
X1751Y674D03*
X1851Y674D03*
X1951Y674D03*
X2051Y674D03*
X2151Y674D03*
X2251Y674D03*
X2351Y674D03*
X2451Y674D03*
X2551Y674D03*
G54D12*
X1453Y241D03*
X1553Y241D03*
X1653Y241D03*
X1753Y241D03*
X1853Y241D03*
X1953Y241D03*
X2053Y241D03*
X2153Y241D03*
X2253Y241D03*
X2353Y241D03*
G54D14*
X863Y152D03*
X726Y152D03*
G54D12*
X317Y82D03*
X417Y82D03*
X517Y82D03*
X170Y520D03*
X170Y420D03*
X170Y320D03*
X170Y220D03*
G54D11*
X1091Y378D03*
G54D15*
X671Y690D03*
X927Y690D03*
X671Y512D03*
X927Y512D03*
X671Y690D03*
X927Y690D03*
X671Y512D03*
X927Y512D03*
X671Y690D03*
X927Y690D03*
X671Y512D03*
X927Y512D03*
X671Y690D03*
X927Y690D03*
X671Y512D03*
X927Y512D03*
G54D16*
X2911Y475D03*
G54D17*
X1151Y74D03*
G54D18*
X863Y152D03*
G54D19*
X946Y441D02*
X935Y482D01*
D02*
X946Y317D02*
X946Y441D01*
D02*
X2535Y292D02*
X2491Y291D01*
D02*
X2562Y225D02*
X2524Y224D01*
D02*
X2590Y157D02*
X2730Y273D01*
D02*
X2730Y273D02*
X2881Y275D01*
D02*
X2495Y156D02*
X2590Y157D01*
D02*
X2745Y475D02*
X2881Y475D01*
D02*
X2749Y475D02*
X2535Y292D01*
D02*
X2881Y475D02*
X2749Y475D01*
D02*
X2732Y370D02*
X2562Y225D01*
D02*
X2881Y374D02*
X2732Y370D01*
D02*
X2364Y586D02*
X2745Y475D01*
D02*
X1453Y589D02*
X2364Y586D01*
D02*
X1451Y645D02*
X1453Y589D01*
D02*
X1453Y211D02*
X1451Y103D01*
D02*
X1551Y103D02*
X1553Y211D01*
D02*
X1651Y103D02*
X1653Y211D01*
D02*
X1751Y103D02*
X1753Y211D01*
D02*
X1851Y103D02*
X1853Y211D01*
D02*
X2051Y103D02*
X2053Y211D01*
D02*
X2151Y103D02*
X2153Y211D01*
D02*
X2251Y103D02*
X2253Y211D01*
D02*
X1371Y551D02*
X1449Y550D01*
D02*
X1090Y428D02*
X1371Y551D01*
D02*
X1449Y550D02*
X1451Y645D01*
D02*
X1090Y397D02*
X1090Y428D01*
D02*
X965Y298D02*
X1160Y300D01*
D02*
X419Y164D02*
X418Y112D01*
D02*
X571Y294D02*
X419Y164D01*
D02*
X927Y298D02*
X571Y294D01*
G36*
X1490Y655D02*
X1490Y651D01*
X1488Y651D01*
X1488Y647D01*
X1486Y647D01*
X1486Y645D01*
X1484Y645D01*
X1484Y643D01*
X1482Y643D01*
X1482Y641D01*
X1480Y641D01*
X1480Y639D01*
X1478Y639D01*
X1478Y637D01*
X1474Y637D01*
X1474Y611D01*
X1542Y611D01*
X1542Y631D01*
X1536Y631D01*
X1536Y633D01*
X1530Y633D01*
X1530Y635D01*
X1528Y635D01*
X1528Y637D01*
X1524Y637D01*
X1524Y639D01*
X1522Y639D01*
X1522Y641D01*
X1520Y641D01*
X1520Y643D01*
X1518Y643D01*
X1518Y645D01*
X1516Y645D01*
X1516Y647D01*
X1514Y647D01*
X1514Y651D01*
X1512Y651D01*
X1512Y653D01*
X1510Y653D01*
X1510Y655D01*
X1490Y655D01*
G37*
D02*
G36*
X1590Y655D02*
X1590Y651D01*
X1588Y651D01*
X1588Y647D01*
X1586Y647D01*
X1586Y645D01*
X1584Y645D01*
X1584Y643D01*
X1582Y643D01*
X1582Y641D01*
X1580Y641D01*
X1580Y639D01*
X1578Y639D01*
X1578Y637D01*
X1574Y637D01*
X1574Y635D01*
X1570Y635D01*
X1570Y633D01*
X1566Y633D01*
X1566Y631D01*
X1558Y631D01*
X1558Y611D01*
X1642Y611D01*
X1642Y631D01*
X1636Y631D01*
X1636Y633D01*
X1630Y633D01*
X1630Y635D01*
X1628Y635D01*
X1628Y637D01*
X1624Y637D01*
X1624Y639D01*
X1622Y639D01*
X1622Y641D01*
X1620Y641D01*
X1620Y643D01*
X1618Y643D01*
X1618Y645D01*
X1616Y645D01*
X1616Y647D01*
X1614Y647D01*
X1614Y651D01*
X1612Y651D01*
X1612Y653D01*
X1610Y653D01*
X1610Y655D01*
X1590Y655D01*
G37*
D02*
G36*
X1690Y655D02*
X1690Y651D01*
X1688Y651D01*
X1688Y647D01*
X1686Y647D01*
X1686Y645D01*
X1684Y645D01*
X1684Y643D01*
X1682Y643D01*
X1682Y641D01*
X1680Y641D01*
X1680Y639D01*
X1678Y639D01*
X1678Y637D01*
X1674Y637D01*
X1674Y635D01*
X1670Y635D01*
X1670Y633D01*
X1666Y633D01*
X1666Y631D01*
X1658Y631D01*
X1658Y611D01*
X1742Y611D01*
X1742Y631D01*
X1736Y631D01*
X1736Y633D01*
X1730Y633D01*
X1730Y635D01*
X1728Y635D01*
X1728Y637D01*
X1724Y637D01*
X1724Y639D01*
X1722Y639D01*
X1722Y641D01*
X1720Y641D01*
X1720Y643D01*
X1718Y643D01*
X1718Y645D01*
X1716Y645D01*
X1716Y647D01*
X1714Y647D01*
X1714Y651D01*
X1712Y651D01*
X1712Y653D01*
X1710Y653D01*
X1710Y655D01*
X1690Y655D01*
G37*
D02*
G36*
X2594Y707D02*
X2594Y683D01*
X2596Y683D01*
X2596Y667D01*
X2594Y667D01*
X2594Y659D01*
X2592Y659D01*
X2592Y655D01*
X2590Y655D01*
X2590Y651D01*
X2588Y651D01*
X2588Y647D01*
X2586Y647D01*
X2586Y645D01*
X2584Y645D01*
X2584Y643D01*
X2582Y643D01*
X2582Y641D01*
X2580Y641D01*
X2580Y639D01*
X2578Y639D01*
X2578Y637D01*
X2574Y637D01*
X2574Y635D01*
X2570Y635D01*
X2570Y633D01*
X2566Y633D01*
X2566Y631D01*
X2558Y631D01*
X2558Y629D01*
X2856Y629D01*
X2856Y631D01*
X2854Y631D01*
X2854Y633D01*
X2850Y633D01*
X2850Y635D01*
X2848Y635D01*
X2848Y637D01*
X2844Y637D01*
X2844Y639D01*
X2842Y639D01*
X2842Y641D01*
X2838Y641D01*
X2838Y643D01*
X2836Y643D01*
X2836Y645D01*
X2832Y645D01*
X2832Y647D01*
X2830Y647D01*
X2830Y649D01*
X2826Y649D01*
X2826Y651D01*
X2822Y651D01*
X2822Y653D01*
X2820Y653D01*
X2820Y655D01*
X2816Y655D01*
X2816Y657D01*
X2812Y657D01*
X2812Y659D01*
X2808Y659D01*
X2808Y661D01*
X2806Y661D01*
X2806Y663D01*
X2802Y663D01*
X2802Y665D01*
X2798Y665D01*
X2798Y667D01*
X2792Y667D01*
X2792Y669D01*
X2788Y669D01*
X2788Y671D01*
X2784Y671D01*
X2784Y673D01*
X2780Y673D01*
X2780Y675D01*
X2776Y675D01*
X2776Y677D01*
X2770Y677D01*
X2770Y679D01*
X2766Y679D01*
X2766Y681D01*
X2760Y681D01*
X2760Y683D01*
X2754Y683D01*
X2754Y685D01*
X2748Y685D01*
X2748Y687D01*
X2742Y687D01*
X2742Y689D01*
X2736Y689D01*
X2736Y691D01*
X2730Y691D01*
X2730Y693D01*
X2722Y693D01*
X2722Y695D01*
X2714Y695D01*
X2714Y697D01*
X2706Y697D01*
X2706Y699D01*
X2696Y699D01*
X2696Y701D01*
X2684Y701D01*
X2684Y703D01*
X2670Y703D01*
X2670Y705D01*
X2648Y705D01*
X2648Y707D01*
X2594Y707D01*
G37*
D02*
G36*
X1790Y655D02*
X1790Y651D01*
X1788Y651D01*
X1788Y647D01*
X1786Y647D01*
X1786Y645D01*
X1784Y645D01*
X1784Y643D01*
X1782Y643D01*
X1782Y641D01*
X1780Y641D01*
X1780Y639D01*
X1778Y639D01*
X1778Y637D01*
X1774Y637D01*
X1774Y635D01*
X1770Y635D01*
X1770Y633D01*
X1766Y633D01*
X1766Y631D01*
X1758Y631D01*
X1758Y629D01*
X1842Y629D01*
X1842Y631D01*
X1836Y631D01*
X1836Y633D01*
X1830Y633D01*
X1830Y635D01*
X1828Y635D01*
X1828Y637D01*
X1824Y637D01*
X1824Y639D01*
X1822Y639D01*
X1822Y641D01*
X1820Y641D01*
X1820Y643D01*
X1818Y643D01*
X1818Y645D01*
X1816Y645D01*
X1816Y647D01*
X1814Y647D01*
X1814Y651D01*
X1812Y651D01*
X1812Y653D01*
X1810Y653D01*
X1810Y655D01*
X1790Y655D01*
G37*
D02*
G36*
X1890Y655D02*
X1890Y651D01*
X1888Y651D01*
X1888Y647D01*
X1886Y647D01*
X1886Y645D01*
X1884Y645D01*
X1884Y643D01*
X1882Y643D01*
X1882Y641D01*
X1880Y641D01*
X1880Y639D01*
X1878Y639D01*
X1878Y637D01*
X1874Y637D01*
X1874Y635D01*
X1870Y635D01*
X1870Y633D01*
X1866Y633D01*
X1866Y631D01*
X1858Y631D01*
X1858Y629D01*
X1942Y629D01*
X1942Y631D01*
X1936Y631D01*
X1936Y633D01*
X1930Y633D01*
X1930Y635D01*
X1928Y635D01*
X1928Y637D01*
X1924Y637D01*
X1924Y639D01*
X1922Y639D01*
X1922Y641D01*
X1920Y641D01*
X1920Y643D01*
X1918Y643D01*
X1918Y645D01*
X1916Y645D01*
X1916Y647D01*
X1914Y647D01*
X1914Y651D01*
X1912Y651D01*
X1912Y653D01*
X1910Y653D01*
X1910Y655D01*
X1890Y655D01*
G37*
D02*
G36*
X1990Y655D02*
X1990Y651D01*
X1988Y651D01*
X1988Y647D01*
X1986Y647D01*
X1986Y645D01*
X1984Y645D01*
X1984Y643D01*
X1982Y643D01*
X1982Y641D01*
X1980Y641D01*
X1980Y639D01*
X1978Y639D01*
X1978Y637D01*
X1974Y637D01*
X1974Y635D01*
X1970Y635D01*
X1970Y633D01*
X1966Y633D01*
X1966Y631D01*
X1958Y631D01*
X1958Y629D01*
X2042Y629D01*
X2042Y631D01*
X2036Y631D01*
X2036Y633D01*
X2030Y633D01*
X2030Y635D01*
X2028Y635D01*
X2028Y637D01*
X2024Y637D01*
X2024Y639D01*
X2022Y639D01*
X2022Y641D01*
X2020Y641D01*
X2020Y643D01*
X2018Y643D01*
X2018Y645D01*
X2016Y645D01*
X2016Y647D01*
X2014Y647D01*
X2014Y651D01*
X2012Y651D01*
X2012Y653D01*
X2010Y653D01*
X2010Y655D01*
X1990Y655D01*
G37*
D02*
G36*
X2090Y655D02*
X2090Y651D01*
X2088Y651D01*
X2088Y647D01*
X2086Y647D01*
X2086Y645D01*
X2084Y645D01*
X2084Y643D01*
X2082Y643D01*
X2082Y641D01*
X2080Y641D01*
X2080Y639D01*
X2078Y639D01*
X2078Y637D01*
X2074Y637D01*
X2074Y635D01*
X2070Y635D01*
X2070Y633D01*
X2066Y633D01*
X2066Y631D01*
X2058Y631D01*
X2058Y629D01*
X2142Y629D01*
X2142Y631D01*
X2136Y631D01*
X2136Y633D01*
X2130Y633D01*
X2130Y635D01*
X2128Y635D01*
X2128Y637D01*
X2124Y637D01*
X2124Y639D01*
X2122Y639D01*
X2122Y641D01*
X2120Y641D01*
X2120Y643D01*
X2118Y643D01*
X2118Y645D01*
X2116Y645D01*
X2116Y647D01*
X2114Y647D01*
X2114Y651D01*
X2112Y651D01*
X2112Y653D01*
X2110Y653D01*
X2110Y655D01*
X2090Y655D01*
G37*
D02*
G36*
X2190Y655D02*
X2190Y651D01*
X2188Y651D01*
X2188Y647D01*
X2186Y647D01*
X2186Y645D01*
X2184Y645D01*
X2184Y643D01*
X2182Y643D01*
X2182Y641D01*
X2180Y641D01*
X2180Y639D01*
X2178Y639D01*
X2178Y637D01*
X2174Y637D01*
X2174Y635D01*
X2170Y635D01*
X2170Y633D01*
X2166Y633D01*
X2166Y631D01*
X2158Y631D01*
X2158Y629D01*
X2242Y629D01*
X2242Y631D01*
X2236Y631D01*
X2236Y633D01*
X2230Y633D01*
X2230Y635D01*
X2228Y635D01*
X2228Y637D01*
X2224Y637D01*
X2224Y639D01*
X2222Y639D01*
X2222Y641D01*
X2220Y641D01*
X2220Y643D01*
X2218Y643D01*
X2218Y645D01*
X2216Y645D01*
X2216Y647D01*
X2214Y647D01*
X2214Y651D01*
X2212Y651D01*
X2212Y653D01*
X2210Y653D01*
X2210Y655D01*
X2190Y655D01*
G37*
D02*
G36*
X2290Y655D02*
X2290Y651D01*
X2288Y651D01*
X2288Y647D01*
X2286Y647D01*
X2286Y645D01*
X2284Y645D01*
X2284Y643D01*
X2282Y643D01*
X2282Y641D01*
X2280Y641D01*
X2280Y639D01*
X2278Y639D01*
X2278Y637D01*
X2274Y637D01*
X2274Y635D01*
X2270Y635D01*
X2270Y633D01*
X2266Y633D01*
X2266Y631D01*
X2258Y631D01*
X2258Y629D01*
X2342Y629D01*
X2342Y631D01*
X2336Y631D01*
X2336Y633D01*
X2330Y633D01*
X2330Y635D01*
X2328Y635D01*
X2328Y637D01*
X2324Y637D01*
X2324Y639D01*
X2322Y639D01*
X2322Y641D01*
X2320Y641D01*
X2320Y643D01*
X2318Y643D01*
X2318Y645D01*
X2316Y645D01*
X2316Y647D01*
X2314Y647D01*
X2314Y651D01*
X2312Y651D01*
X2312Y653D01*
X2310Y653D01*
X2310Y655D01*
X2290Y655D01*
G37*
D02*
G36*
X2390Y655D02*
X2390Y651D01*
X2388Y651D01*
X2388Y647D01*
X2386Y647D01*
X2386Y645D01*
X2384Y645D01*
X2384Y643D01*
X2382Y643D01*
X2382Y641D01*
X2380Y641D01*
X2380Y639D01*
X2378Y639D01*
X2378Y637D01*
X2374Y637D01*
X2374Y635D01*
X2370Y635D01*
X2370Y633D01*
X2366Y633D01*
X2366Y631D01*
X2358Y631D01*
X2358Y629D01*
X2442Y629D01*
X2442Y631D01*
X2436Y631D01*
X2436Y633D01*
X2430Y633D01*
X2430Y635D01*
X2428Y635D01*
X2428Y637D01*
X2424Y637D01*
X2424Y639D01*
X2422Y639D01*
X2422Y641D01*
X2420Y641D01*
X2420Y643D01*
X2418Y643D01*
X2418Y645D01*
X2416Y645D01*
X2416Y647D01*
X2414Y647D01*
X2414Y651D01*
X2412Y651D01*
X2412Y653D01*
X2410Y653D01*
X2410Y655D01*
X2390Y655D01*
G37*
D02*
G36*
X2490Y655D02*
X2490Y651D01*
X2488Y651D01*
X2488Y647D01*
X2486Y647D01*
X2486Y645D01*
X2484Y645D01*
X2484Y643D01*
X2482Y643D01*
X2482Y641D01*
X2480Y641D01*
X2480Y639D01*
X2478Y639D01*
X2478Y637D01*
X2474Y637D01*
X2474Y635D01*
X2470Y635D01*
X2470Y633D01*
X2466Y633D01*
X2466Y631D01*
X2458Y631D01*
X2458Y629D01*
X2542Y629D01*
X2542Y631D01*
X2536Y631D01*
X2536Y633D01*
X2530Y633D01*
X2530Y635D01*
X2528Y635D01*
X2528Y637D01*
X2524Y637D01*
X2524Y639D01*
X2522Y639D01*
X2522Y641D01*
X2520Y641D01*
X2520Y643D01*
X2518Y643D01*
X2518Y645D01*
X2516Y645D01*
X2516Y647D01*
X2514Y647D01*
X2514Y651D01*
X2512Y651D01*
X2512Y653D01*
X2510Y653D01*
X2510Y655D01*
X2490Y655D01*
G37*
D02*
G36*
X1758Y629D02*
X1758Y627D01*
X2858Y627D01*
X2858Y629D01*
X1758Y629D01*
G37*
D02*
G36*
X1758Y629D02*
X1758Y627D01*
X2858Y627D01*
X2858Y629D01*
X1758Y629D01*
G37*
D02*
G36*
X1758Y629D02*
X1758Y627D01*
X2858Y627D01*
X2858Y629D01*
X1758Y629D01*
G37*
D02*
G36*
X1758Y629D02*
X1758Y627D01*
X2858Y627D01*
X2858Y629D01*
X1758Y629D01*
G37*
D02*
G36*
X1758Y629D02*
X1758Y627D01*
X2858Y627D01*
X2858Y629D01*
X1758Y629D01*
G37*
D02*
G36*
X1758Y629D02*
X1758Y627D01*
X2858Y627D01*
X2858Y629D01*
X1758Y629D01*
G37*
D02*
G36*
X1758Y629D02*
X1758Y627D01*
X2858Y627D01*
X2858Y629D01*
X1758Y629D01*
G37*
D02*
G36*
X1758Y629D02*
X1758Y627D01*
X2858Y627D01*
X2858Y629D01*
X1758Y629D01*
G37*
D02*
G36*
X1758Y629D02*
X1758Y627D01*
X2858Y627D01*
X2858Y629D01*
X1758Y629D01*
G37*
D02*
G36*
X1758Y627D02*
X1758Y611D01*
X1766Y611D01*
X1766Y609D01*
X2228Y609D01*
X2228Y607D01*
X2372Y607D01*
X2372Y605D01*
X2378Y605D01*
X2378Y603D01*
X2386Y603D01*
X2386Y601D01*
X2392Y601D01*
X2392Y599D01*
X2400Y599D01*
X2400Y597D01*
X2406Y597D01*
X2406Y595D01*
X2414Y595D01*
X2414Y593D01*
X2420Y593D01*
X2420Y591D01*
X2428Y591D01*
X2428Y589D01*
X2434Y589D01*
X2434Y587D01*
X2440Y587D01*
X2440Y585D01*
X2448Y585D01*
X2448Y583D01*
X2454Y583D01*
X2454Y581D01*
X2462Y581D01*
X2462Y579D01*
X2468Y579D01*
X2468Y577D01*
X2476Y577D01*
X2476Y575D01*
X2482Y575D01*
X2482Y573D01*
X2490Y573D01*
X2490Y571D01*
X2496Y571D01*
X2496Y569D01*
X2504Y569D01*
X2504Y567D01*
X2510Y567D01*
X2510Y565D01*
X2518Y565D01*
X2518Y563D01*
X2524Y563D01*
X2524Y561D01*
X2530Y561D01*
X2530Y559D01*
X2538Y559D01*
X2538Y557D01*
X2544Y557D01*
X2544Y555D01*
X2552Y555D01*
X2552Y553D01*
X2558Y553D01*
X2558Y551D01*
X2566Y551D01*
X2566Y549D01*
X2572Y549D01*
X2572Y547D01*
X2580Y547D01*
X2580Y545D01*
X2586Y545D01*
X2586Y543D01*
X2594Y543D01*
X2594Y541D01*
X2600Y541D01*
X2600Y539D01*
X2608Y539D01*
X2608Y537D01*
X2614Y537D01*
X2614Y535D01*
X2622Y535D01*
X2622Y533D01*
X2628Y533D01*
X2628Y531D01*
X2634Y531D01*
X2634Y529D01*
X2642Y529D01*
X2642Y527D01*
X2648Y527D01*
X2648Y525D01*
X2656Y525D01*
X2656Y523D01*
X2662Y523D01*
X2662Y521D01*
X2670Y521D01*
X2670Y519D01*
X2676Y519D01*
X2676Y517D01*
X2684Y517D01*
X2684Y515D01*
X2690Y515D01*
X2690Y513D01*
X2698Y513D01*
X2698Y511D01*
X2704Y511D01*
X2704Y509D01*
X2712Y509D01*
X2712Y507D01*
X2718Y507D01*
X2718Y505D01*
X2724Y505D01*
X2724Y503D01*
X2732Y503D01*
X2732Y501D01*
X2738Y501D01*
X2738Y499D01*
X2746Y499D01*
X2746Y497D01*
X2862Y497D01*
X2862Y523D01*
X2870Y523D01*
X2870Y545D01*
X2868Y545D01*
X2868Y547D01*
X2866Y547D01*
X2866Y553D01*
X2864Y553D01*
X2864Y559D01*
X2862Y559D01*
X2862Y579D01*
X2864Y579D01*
X2864Y585D01*
X2866Y585D01*
X2866Y591D01*
X2868Y591D01*
X2868Y595D01*
X2870Y595D01*
X2870Y597D01*
X2872Y597D01*
X2872Y619D01*
X2868Y619D01*
X2868Y621D01*
X2866Y621D01*
X2866Y623D01*
X2864Y623D01*
X2864Y625D01*
X2862Y625D01*
X2862Y627D01*
X1758Y627D01*
G37*
D02*
G36*
X2960Y471D02*
X2960Y425D01*
X2948Y425D01*
X2948Y405D01*
X2950Y405D01*
X2950Y403D01*
X2952Y403D01*
X2952Y401D01*
X2954Y401D01*
X2954Y397D01*
X2956Y397D01*
X2956Y393D01*
X2958Y393D01*
X2958Y385D01*
X2960Y385D01*
X2960Y363D01*
X2958Y363D01*
X2958Y357D01*
X2956Y357D01*
X2956Y353D01*
X2954Y353D01*
X2954Y349D01*
X2952Y349D01*
X2952Y347D01*
X2950Y347D01*
X2950Y343D01*
X2948Y343D01*
X2948Y341D01*
X2946Y341D01*
X2946Y339D01*
X2944Y339D01*
X2944Y337D01*
X2940Y337D01*
X2940Y335D01*
X2938Y335D01*
X2938Y315D01*
X2940Y315D01*
X2940Y313D01*
X2942Y313D01*
X2942Y311D01*
X2946Y311D01*
X2946Y309D01*
X2948Y309D01*
X2948Y305D01*
X2950Y305D01*
X2950Y303D01*
X2952Y303D01*
X2952Y301D01*
X2954Y301D01*
X2954Y297D01*
X2956Y297D01*
X2956Y293D01*
X2958Y293D01*
X2958Y285D01*
X2960Y285D01*
X2960Y275D01*
X2980Y275D01*
X2980Y281D01*
X2982Y281D01*
X2982Y285D01*
X2984Y285D01*
X2984Y291D01*
X2986Y291D01*
X2986Y297D01*
X2988Y297D01*
X2988Y303D01*
X2990Y303D01*
X2990Y309D01*
X2992Y309D01*
X2992Y317D01*
X2994Y317D01*
X2994Y325D01*
X2996Y325D01*
X2996Y333D01*
X2998Y333D01*
X2998Y343D01*
X3000Y343D01*
X3000Y355D01*
X3002Y355D01*
X3002Y393D01*
X3000Y393D01*
X3000Y403D01*
X2998Y403D01*
X2998Y413D01*
X2996Y413D01*
X2996Y423D01*
X2994Y423D01*
X2994Y431D01*
X2992Y431D01*
X2992Y437D01*
X2990Y437D01*
X2990Y443D01*
X2988Y443D01*
X2988Y451D01*
X2986Y451D01*
X2986Y455D01*
X2984Y455D01*
X2984Y461D01*
X2982Y461D01*
X2982Y467D01*
X2980Y467D01*
X2980Y471D01*
X2960Y471D01*
G37*
D02*
G36*
X2756Y453D02*
X2756Y451D01*
X2754Y451D01*
X2754Y449D01*
X2750Y449D01*
X2750Y447D01*
X2748Y447D01*
X2748Y445D01*
X2746Y445D01*
X2746Y443D01*
X2744Y443D01*
X2744Y441D01*
X2742Y441D01*
X2742Y439D01*
X2740Y439D01*
X2740Y437D01*
X2736Y437D01*
X2736Y435D01*
X2734Y435D01*
X2734Y433D01*
X2732Y433D01*
X2732Y431D01*
X2730Y431D01*
X2730Y429D01*
X2728Y429D01*
X2728Y427D01*
X2726Y427D01*
X2726Y425D01*
X2722Y425D01*
X2722Y423D01*
X2720Y423D01*
X2720Y421D01*
X2718Y421D01*
X2718Y419D01*
X2716Y419D01*
X2716Y417D01*
X2714Y417D01*
X2714Y415D01*
X2712Y415D01*
X2712Y413D01*
X2708Y413D01*
X2708Y411D01*
X2706Y411D01*
X2706Y409D01*
X2704Y409D01*
X2704Y407D01*
X2702Y407D01*
X2702Y405D01*
X2700Y405D01*
X2700Y403D01*
X2698Y403D01*
X2698Y401D01*
X2694Y401D01*
X2694Y399D01*
X2692Y399D01*
X2692Y397D01*
X2690Y397D01*
X2690Y395D01*
X2688Y395D01*
X2688Y393D01*
X2686Y393D01*
X2686Y391D01*
X2684Y391D01*
X2684Y389D01*
X2680Y389D01*
X2680Y387D01*
X2678Y387D01*
X2678Y385D01*
X2676Y385D01*
X2676Y383D01*
X2674Y383D01*
X2674Y381D01*
X2672Y381D01*
X2672Y379D01*
X2670Y379D01*
X2670Y377D01*
X2668Y377D01*
X2668Y375D01*
X2664Y375D01*
X2664Y373D01*
X2662Y373D01*
X2662Y371D01*
X2660Y371D01*
X2660Y369D01*
X2658Y369D01*
X2658Y367D01*
X2656Y367D01*
X2656Y365D01*
X2654Y365D01*
X2654Y363D01*
X2650Y363D01*
X2650Y361D01*
X2648Y361D01*
X2648Y359D01*
X2646Y359D01*
X2646Y357D01*
X2644Y357D01*
X2644Y355D01*
X2642Y355D01*
X2642Y353D01*
X2640Y353D01*
X2640Y351D01*
X2636Y351D01*
X2636Y349D01*
X2634Y349D01*
X2634Y347D01*
X2632Y347D01*
X2632Y345D01*
X2630Y345D01*
X2630Y343D01*
X2628Y343D01*
X2628Y341D01*
X2626Y341D01*
X2626Y339D01*
X2622Y339D01*
X2622Y337D01*
X2620Y337D01*
X2620Y335D01*
X2618Y335D01*
X2618Y333D01*
X2616Y333D01*
X2616Y331D01*
X2614Y331D01*
X2614Y329D01*
X2612Y329D01*
X2612Y327D01*
X2608Y327D01*
X2608Y325D01*
X2606Y325D01*
X2606Y323D01*
X2604Y323D01*
X2604Y321D01*
X2602Y321D01*
X2602Y319D01*
X2600Y319D01*
X2600Y317D01*
X2598Y317D01*
X2598Y315D01*
X2594Y315D01*
X2594Y313D01*
X2592Y313D01*
X2592Y311D01*
X2590Y311D01*
X2590Y309D01*
X2588Y309D01*
X2588Y307D01*
X2586Y307D01*
X2586Y305D01*
X2584Y305D01*
X2584Y303D01*
X2580Y303D01*
X2580Y301D01*
X2578Y301D01*
X2578Y299D01*
X2576Y299D01*
X2576Y297D01*
X2574Y297D01*
X2574Y295D01*
X2572Y295D01*
X2572Y293D01*
X2570Y293D01*
X2570Y291D01*
X2566Y291D01*
X2566Y289D01*
X2564Y289D01*
X2564Y287D01*
X2562Y287D01*
X2562Y285D01*
X2560Y285D01*
X2560Y283D01*
X2558Y283D01*
X2558Y281D01*
X2556Y281D01*
X2556Y279D01*
X2552Y279D01*
X2552Y277D01*
X2550Y277D01*
X2550Y275D01*
X2548Y275D01*
X2548Y273D01*
X2544Y273D01*
X2544Y271D01*
X2536Y271D01*
X2536Y269D01*
X2518Y269D01*
X2518Y249D01*
X2522Y249D01*
X2522Y247D01*
X2556Y247D01*
X2556Y249D01*
X2558Y249D01*
X2558Y251D01*
X2560Y251D01*
X2560Y253D01*
X2562Y253D01*
X2562Y255D01*
X2566Y255D01*
X2566Y257D01*
X2568Y257D01*
X2568Y259D01*
X2570Y259D01*
X2570Y261D01*
X2572Y261D01*
X2572Y263D01*
X2574Y263D01*
X2574Y265D01*
X2576Y265D01*
X2576Y267D01*
X2580Y267D01*
X2580Y269D01*
X2582Y269D01*
X2582Y271D01*
X2584Y271D01*
X2584Y273D01*
X2586Y273D01*
X2586Y275D01*
X2588Y275D01*
X2588Y277D01*
X2590Y277D01*
X2590Y279D01*
X2594Y279D01*
X2594Y281D01*
X2596Y281D01*
X2596Y283D01*
X2598Y283D01*
X2598Y285D01*
X2600Y285D01*
X2600Y287D01*
X2602Y287D01*
X2602Y289D01*
X2606Y289D01*
X2606Y291D01*
X2608Y291D01*
X2608Y293D01*
X2610Y293D01*
X2610Y295D01*
X2612Y295D01*
X2612Y297D01*
X2614Y297D01*
X2614Y299D01*
X2616Y299D01*
X2616Y301D01*
X2620Y301D01*
X2620Y303D01*
X2622Y303D01*
X2622Y305D01*
X2624Y305D01*
X2624Y307D01*
X2626Y307D01*
X2626Y309D01*
X2628Y309D01*
X2628Y311D01*
X2630Y311D01*
X2630Y313D01*
X2634Y313D01*
X2634Y315D01*
X2636Y315D01*
X2636Y317D01*
X2638Y317D01*
X2638Y319D01*
X2640Y319D01*
X2640Y321D01*
X2642Y321D01*
X2642Y323D01*
X2646Y323D01*
X2646Y325D01*
X2648Y325D01*
X2648Y327D01*
X2650Y327D01*
X2650Y329D01*
X2652Y329D01*
X2652Y331D01*
X2654Y331D01*
X2654Y333D01*
X2656Y333D01*
X2656Y335D01*
X2660Y335D01*
X2660Y337D01*
X2662Y337D01*
X2662Y339D01*
X2664Y339D01*
X2664Y341D01*
X2666Y341D01*
X2666Y343D01*
X2668Y343D01*
X2668Y345D01*
X2670Y345D01*
X2670Y347D01*
X2674Y347D01*
X2674Y349D01*
X2676Y349D01*
X2676Y351D01*
X2678Y351D01*
X2678Y353D01*
X2680Y353D01*
X2680Y355D01*
X2682Y355D01*
X2682Y357D01*
X2684Y357D01*
X2684Y359D01*
X2688Y359D01*
X2688Y361D01*
X2690Y361D01*
X2690Y363D01*
X2692Y363D01*
X2692Y365D01*
X2694Y365D01*
X2694Y367D01*
X2696Y367D01*
X2696Y369D01*
X2700Y369D01*
X2700Y371D01*
X2702Y371D01*
X2702Y373D01*
X2704Y373D01*
X2704Y375D01*
X2706Y375D01*
X2706Y377D01*
X2708Y377D01*
X2708Y379D01*
X2710Y379D01*
X2710Y381D01*
X2714Y381D01*
X2714Y383D01*
X2716Y383D01*
X2716Y385D01*
X2718Y385D01*
X2718Y387D01*
X2720Y387D01*
X2720Y389D01*
X2724Y389D01*
X2724Y391D01*
X2750Y391D01*
X2750Y393D01*
X2818Y393D01*
X2818Y395D01*
X2868Y395D01*
X2868Y399D01*
X2870Y399D01*
X2870Y403D01*
X2872Y403D01*
X2872Y405D01*
X2874Y405D01*
X2874Y425D01*
X2862Y425D01*
X2862Y453D01*
X2756Y453D01*
G37*
D02*
G36*
X2818Y351D02*
X2818Y349D01*
X2752Y349D01*
X2752Y347D01*
X2738Y347D01*
X2738Y345D01*
X2736Y345D01*
X2736Y343D01*
X2734Y343D01*
X2734Y341D01*
X2732Y341D01*
X2732Y339D01*
X2730Y339D01*
X2730Y337D01*
X2728Y337D01*
X2728Y335D01*
X2724Y335D01*
X2724Y333D01*
X2722Y333D01*
X2722Y331D01*
X2720Y331D01*
X2720Y329D01*
X2718Y329D01*
X2718Y327D01*
X2716Y327D01*
X2716Y325D01*
X2712Y325D01*
X2712Y323D01*
X2710Y323D01*
X2710Y321D01*
X2708Y321D01*
X2708Y319D01*
X2706Y319D01*
X2706Y317D01*
X2704Y317D01*
X2704Y315D01*
X2702Y315D01*
X2702Y313D01*
X2698Y313D01*
X2698Y311D01*
X2696Y311D01*
X2696Y309D01*
X2694Y309D01*
X2694Y307D01*
X2692Y307D01*
X2692Y305D01*
X2690Y305D01*
X2690Y303D01*
X2688Y303D01*
X2688Y301D01*
X2684Y301D01*
X2684Y299D01*
X2682Y299D01*
X2682Y297D01*
X2680Y297D01*
X2680Y295D01*
X2678Y295D01*
X2678Y293D01*
X2676Y293D01*
X2676Y291D01*
X2672Y291D01*
X2672Y289D01*
X2670Y289D01*
X2670Y287D01*
X2668Y287D01*
X2668Y285D01*
X2666Y285D01*
X2666Y283D01*
X2664Y283D01*
X2664Y281D01*
X2662Y281D01*
X2662Y279D01*
X2658Y279D01*
X2658Y277D01*
X2656Y277D01*
X2656Y275D01*
X2654Y275D01*
X2654Y273D01*
X2652Y273D01*
X2652Y271D01*
X2650Y271D01*
X2650Y269D01*
X2648Y269D01*
X2648Y267D01*
X2644Y267D01*
X2644Y265D01*
X2642Y265D01*
X2642Y263D01*
X2640Y263D01*
X2640Y261D01*
X2638Y261D01*
X2638Y259D01*
X2636Y259D01*
X2636Y257D01*
X2634Y257D01*
X2634Y255D01*
X2630Y255D01*
X2630Y253D01*
X2628Y253D01*
X2628Y251D01*
X2626Y251D01*
X2626Y249D01*
X2624Y249D01*
X2624Y247D01*
X2622Y247D01*
X2622Y245D01*
X2618Y245D01*
X2618Y243D01*
X2616Y243D01*
X2616Y241D01*
X2614Y241D01*
X2614Y239D01*
X2612Y239D01*
X2612Y237D01*
X2610Y237D01*
X2610Y235D01*
X2608Y235D01*
X2608Y233D01*
X2604Y233D01*
X2604Y231D01*
X2602Y231D01*
X2602Y229D01*
X2600Y229D01*
X2600Y227D01*
X2598Y227D01*
X2598Y225D01*
X2596Y225D01*
X2596Y223D01*
X2594Y223D01*
X2594Y221D01*
X2590Y221D01*
X2590Y219D01*
X2588Y219D01*
X2588Y217D01*
X2586Y217D01*
X2586Y215D01*
X2584Y215D01*
X2584Y213D01*
X2582Y213D01*
X2582Y211D01*
X2580Y211D01*
X2580Y209D01*
X2576Y209D01*
X2576Y207D01*
X2574Y207D01*
X2574Y205D01*
X2570Y205D01*
X2570Y203D01*
X2526Y203D01*
X2526Y201D01*
X2522Y201D01*
X2522Y199D01*
X2520Y199D01*
X2520Y179D01*
X2584Y179D01*
X2584Y181D01*
X2586Y181D01*
X2586Y183D01*
X2588Y183D01*
X2588Y185D01*
X2592Y185D01*
X2592Y187D01*
X2594Y187D01*
X2594Y189D01*
X2596Y189D01*
X2596Y191D01*
X2598Y191D01*
X2598Y193D01*
X2600Y193D01*
X2600Y195D01*
X2604Y195D01*
X2604Y197D01*
X2606Y197D01*
X2606Y199D01*
X2608Y199D01*
X2608Y201D01*
X2610Y201D01*
X2610Y203D01*
X2612Y203D01*
X2612Y205D01*
X2616Y205D01*
X2616Y207D01*
X2618Y207D01*
X2618Y209D01*
X2620Y209D01*
X2620Y211D01*
X2622Y211D01*
X2622Y213D01*
X2624Y213D01*
X2624Y215D01*
X2628Y215D01*
X2628Y217D01*
X2630Y217D01*
X2630Y219D01*
X2632Y219D01*
X2632Y221D01*
X2634Y221D01*
X2634Y223D01*
X2636Y223D01*
X2636Y225D01*
X2640Y225D01*
X2640Y227D01*
X2642Y227D01*
X2642Y229D01*
X2644Y229D01*
X2644Y231D01*
X2646Y231D01*
X2646Y233D01*
X2648Y233D01*
X2648Y235D01*
X2652Y235D01*
X2652Y237D01*
X2654Y237D01*
X2654Y239D01*
X2656Y239D01*
X2656Y241D01*
X2658Y241D01*
X2658Y243D01*
X2660Y243D01*
X2660Y245D01*
X2664Y245D01*
X2664Y247D01*
X2666Y247D01*
X2666Y249D01*
X2668Y249D01*
X2668Y251D01*
X2670Y251D01*
X2670Y253D01*
X2672Y253D01*
X2672Y255D01*
X2676Y255D01*
X2676Y257D01*
X2678Y257D01*
X2678Y259D01*
X2680Y259D01*
X2680Y261D01*
X2682Y261D01*
X2682Y263D01*
X2684Y263D01*
X2684Y265D01*
X2686Y265D01*
X2686Y267D01*
X2690Y267D01*
X2690Y269D01*
X2692Y269D01*
X2692Y271D01*
X2694Y271D01*
X2694Y273D01*
X2696Y273D01*
X2696Y275D01*
X2698Y275D01*
X2698Y277D01*
X2702Y277D01*
X2702Y279D01*
X2704Y279D01*
X2704Y281D01*
X2706Y281D01*
X2706Y283D01*
X2708Y283D01*
X2708Y285D01*
X2710Y285D01*
X2710Y287D01*
X2714Y287D01*
X2714Y289D01*
X2716Y289D01*
X2716Y291D01*
X2718Y291D01*
X2718Y293D01*
X2722Y293D01*
X2722Y295D01*
X2814Y295D01*
X2814Y297D01*
X2868Y297D01*
X2868Y299D01*
X2870Y299D01*
X2870Y303D01*
X2872Y303D01*
X2872Y305D01*
X2874Y305D01*
X2874Y307D01*
X2876Y307D01*
X2876Y309D01*
X2878Y309D01*
X2878Y311D01*
X2880Y311D01*
X2880Y313D01*
X2882Y313D01*
X2882Y315D01*
X2884Y315D01*
X2884Y335D01*
X2882Y335D01*
X2882Y337D01*
X2880Y337D01*
X2880Y339D01*
X2876Y339D01*
X2876Y343D01*
X2874Y343D01*
X2874Y345D01*
X2872Y345D01*
X2872Y347D01*
X2870Y347D01*
X2870Y351D01*
X2818Y351D01*
G37*
D02*
G36*
X2816Y253D02*
X2816Y251D01*
X2736Y251D01*
X2736Y249D01*
X2734Y249D01*
X2734Y247D01*
X2732Y247D01*
X2732Y245D01*
X2730Y245D01*
X2730Y243D01*
X2726Y243D01*
X2726Y241D01*
X2724Y241D01*
X2724Y239D01*
X2722Y239D01*
X2722Y237D01*
X2720Y237D01*
X2720Y235D01*
X2718Y235D01*
X2718Y233D01*
X2714Y233D01*
X2714Y231D01*
X2712Y231D01*
X2712Y229D01*
X2710Y229D01*
X2710Y227D01*
X2708Y227D01*
X2708Y225D01*
X2706Y225D01*
X2706Y223D01*
X2702Y223D01*
X2702Y221D01*
X2700Y221D01*
X2700Y219D01*
X2698Y219D01*
X2698Y217D01*
X2696Y217D01*
X2696Y215D01*
X2694Y215D01*
X2694Y213D01*
X2690Y213D01*
X2690Y211D01*
X2688Y211D01*
X2688Y209D01*
X2686Y209D01*
X2686Y207D01*
X2684Y207D01*
X2684Y205D01*
X2682Y205D01*
X2682Y203D01*
X2680Y203D01*
X2680Y201D01*
X2676Y201D01*
X2676Y199D01*
X2674Y199D01*
X2674Y197D01*
X2672Y197D01*
X2672Y195D01*
X2670Y195D01*
X2670Y193D01*
X2668Y193D01*
X2668Y191D01*
X2664Y191D01*
X2664Y189D01*
X2662Y189D01*
X2662Y187D01*
X2660Y187D01*
X2660Y185D01*
X2658Y185D01*
X2658Y183D01*
X2656Y183D01*
X2656Y181D01*
X2652Y181D01*
X2652Y179D01*
X2650Y179D01*
X2650Y177D01*
X2648Y177D01*
X2648Y175D01*
X2646Y175D01*
X2646Y173D01*
X2644Y173D01*
X2644Y171D01*
X2640Y171D01*
X2640Y169D01*
X2638Y169D01*
X2638Y167D01*
X2636Y167D01*
X2636Y165D01*
X2634Y165D01*
X2634Y163D01*
X2632Y163D01*
X2632Y161D01*
X2628Y161D01*
X2628Y159D01*
X2626Y159D01*
X2626Y157D01*
X2624Y157D01*
X2624Y155D01*
X2622Y155D01*
X2622Y153D01*
X2620Y153D01*
X2620Y151D01*
X2616Y151D01*
X2616Y149D01*
X2614Y149D01*
X2614Y147D01*
X2612Y147D01*
X2612Y145D01*
X2610Y145D01*
X2610Y143D01*
X2608Y143D01*
X2608Y141D01*
X2604Y141D01*
X2604Y139D01*
X2602Y139D01*
X2602Y137D01*
X2598Y137D01*
X2598Y135D01*
X2568Y135D01*
X2568Y115D01*
X2572Y115D01*
X2572Y113D01*
X2574Y113D01*
X2574Y111D01*
X2578Y111D01*
X2578Y109D01*
X2580Y109D01*
X2580Y107D01*
X2582Y107D01*
X2582Y105D01*
X2584Y105D01*
X2584Y103D01*
X2586Y103D01*
X2586Y101D01*
X2588Y101D01*
X2588Y97D01*
X2590Y97D01*
X2590Y95D01*
X2592Y95D01*
X2592Y89D01*
X2594Y89D01*
X2594Y83D01*
X2596Y83D01*
X2596Y67D01*
X2594Y67D01*
X2594Y41D01*
X2662Y41D01*
X2662Y43D01*
X2678Y43D01*
X2678Y45D01*
X2690Y45D01*
X2690Y47D01*
X2702Y47D01*
X2702Y49D01*
X2710Y49D01*
X2710Y51D01*
X2720Y51D01*
X2720Y53D01*
X2726Y53D01*
X2726Y55D01*
X2734Y55D01*
X2734Y57D01*
X2740Y57D01*
X2740Y59D01*
X2746Y59D01*
X2746Y61D01*
X2752Y61D01*
X2752Y63D01*
X2758Y63D01*
X2758Y65D01*
X2764Y65D01*
X2764Y67D01*
X2768Y67D01*
X2768Y69D01*
X2774Y69D01*
X2774Y71D01*
X2778Y71D01*
X2778Y73D01*
X2782Y73D01*
X2782Y75D01*
X2788Y75D01*
X2788Y77D01*
X2792Y77D01*
X2792Y79D01*
X2796Y79D01*
X2796Y81D01*
X2800Y81D01*
X2800Y83D01*
X2804Y83D01*
X2804Y85D01*
X2808Y85D01*
X2808Y87D01*
X2810Y87D01*
X2810Y89D01*
X2814Y89D01*
X2814Y91D01*
X2818Y91D01*
X2818Y93D01*
X2822Y93D01*
X2822Y95D01*
X2824Y95D01*
X2824Y97D01*
X2828Y97D01*
X2828Y99D01*
X2832Y99D01*
X2832Y101D01*
X2834Y101D01*
X2834Y103D01*
X2838Y103D01*
X2838Y105D01*
X2840Y105D01*
X2840Y107D01*
X2844Y107D01*
X2844Y109D01*
X2846Y109D01*
X2846Y111D01*
X2850Y111D01*
X2850Y113D01*
X2852Y113D01*
X2852Y115D01*
X2854Y115D01*
X2854Y117D01*
X2858Y117D01*
X2858Y119D01*
X2860Y119D01*
X2860Y121D01*
X2862Y121D01*
X2862Y123D01*
X2866Y123D01*
X2866Y125D01*
X2868Y125D01*
X2868Y127D01*
X2870Y127D01*
X2870Y129D01*
X2872Y129D01*
X2872Y131D01*
X2874Y131D01*
X2874Y133D01*
X2876Y133D01*
X2876Y153D01*
X2874Y153D01*
X2874Y155D01*
X2872Y155D01*
X2872Y159D01*
X2870Y159D01*
X2870Y163D01*
X2868Y163D01*
X2868Y169D01*
X2866Y169D01*
X2866Y175D01*
X2864Y175D01*
X2864Y191D01*
X2866Y191D01*
X2866Y197D01*
X2868Y197D01*
X2868Y203D01*
X2870Y203D01*
X2870Y207D01*
X2872Y207D01*
X2872Y211D01*
X2874Y211D01*
X2874Y213D01*
X2876Y213D01*
X2876Y215D01*
X2878Y215D01*
X2878Y219D01*
X2880Y219D01*
X2880Y239D01*
X2876Y239D01*
X2876Y243D01*
X2874Y243D01*
X2874Y245D01*
X2872Y245D01*
X2872Y247D01*
X2870Y247D01*
X2870Y251D01*
X2868Y251D01*
X2868Y253D01*
X2816Y253D01*
G37*
D02*
G36*
X1592Y213D02*
X1592Y211D01*
X1590Y211D01*
X1590Y209D01*
X1588Y209D01*
X1588Y207D01*
X1586Y207D01*
X1586Y205D01*
X1584Y205D01*
X1584Y203D01*
X1582Y203D01*
X1582Y201D01*
X1580Y201D01*
X1580Y199D01*
X1576Y199D01*
X1576Y197D01*
X1574Y197D01*
X1574Y111D01*
X1578Y111D01*
X1578Y109D01*
X1580Y109D01*
X1580Y107D01*
X1582Y107D01*
X1582Y105D01*
X1584Y105D01*
X1584Y103D01*
X1586Y103D01*
X1586Y101D01*
X1588Y101D01*
X1588Y97D01*
X1590Y97D01*
X1590Y95D01*
X1612Y95D01*
X1612Y99D01*
X1614Y99D01*
X1614Y101D01*
X1616Y101D01*
X1616Y103D01*
X1618Y103D01*
X1618Y105D01*
X1620Y105D01*
X1620Y107D01*
X1622Y107D01*
X1622Y109D01*
X1624Y109D01*
X1624Y111D01*
X1626Y111D01*
X1626Y113D01*
X1630Y113D01*
X1630Y199D01*
X1628Y199D01*
X1628Y201D01*
X1624Y201D01*
X1624Y203D01*
X1622Y203D01*
X1622Y205D01*
X1620Y205D01*
X1620Y207D01*
X1618Y207D01*
X1618Y209D01*
X1616Y209D01*
X1616Y211D01*
X1614Y211D01*
X1614Y213D01*
X1592Y213D01*
G37*
D02*
G36*
X1692Y213D02*
X1692Y211D01*
X1690Y211D01*
X1690Y209D01*
X1688Y209D01*
X1688Y207D01*
X1686Y207D01*
X1686Y205D01*
X1684Y205D01*
X1684Y203D01*
X1682Y203D01*
X1682Y201D01*
X1680Y201D01*
X1680Y199D01*
X1676Y199D01*
X1676Y197D01*
X1674Y197D01*
X1674Y111D01*
X1678Y111D01*
X1678Y109D01*
X1680Y109D01*
X1680Y107D01*
X1682Y107D01*
X1682Y105D01*
X1684Y105D01*
X1684Y103D01*
X1686Y103D01*
X1686Y101D01*
X1688Y101D01*
X1688Y97D01*
X1690Y97D01*
X1690Y95D01*
X1712Y95D01*
X1712Y99D01*
X1714Y99D01*
X1714Y101D01*
X1716Y101D01*
X1716Y103D01*
X1718Y103D01*
X1718Y105D01*
X1720Y105D01*
X1720Y107D01*
X1722Y107D01*
X1722Y109D01*
X1724Y109D01*
X1724Y111D01*
X1726Y111D01*
X1726Y113D01*
X1730Y113D01*
X1730Y199D01*
X1728Y199D01*
X1728Y201D01*
X1724Y201D01*
X1724Y203D01*
X1722Y203D01*
X1722Y205D01*
X1720Y205D01*
X1720Y207D01*
X1718Y207D01*
X1718Y209D01*
X1716Y209D01*
X1716Y211D01*
X1714Y211D01*
X1714Y213D01*
X1692Y213D01*
G37*
D02*
G36*
X1792Y213D02*
X1792Y211D01*
X1790Y211D01*
X1790Y209D01*
X1788Y209D01*
X1788Y207D01*
X1786Y207D01*
X1786Y205D01*
X1784Y205D01*
X1784Y203D01*
X1782Y203D01*
X1782Y201D01*
X1780Y201D01*
X1780Y199D01*
X1776Y199D01*
X1776Y197D01*
X1774Y197D01*
X1774Y111D01*
X1778Y111D01*
X1778Y109D01*
X1780Y109D01*
X1780Y107D01*
X1782Y107D01*
X1782Y105D01*
X1784Y105D01*
X1784Y103D01*
X1786Y103D01*
X1786Y101D01*
X1788Y101D01*
X1788Y97D01*
X1790Y97D01*
X1790Y95D01*
X1812Y95D01*
X1812Y99D01*
X1814Y99D01*
X1814Y101D01*
X1816Y101D01*
X1816Y103D01*
X1818Y103D01*
X1818Y105D01*
X1820Y105D01*
X1820Y107D01*
X1822Y107D01*
X1822Y109D01*
X1824Y109D01*
X1824Y111D01*
X1826Y111D01*
X1826Y113D01*
X1830Y113D01*
X1830Y199D01*
X1828Y199D01*
X1828Y201D01*
X1824Y201D01*
X1824Y203D01*
X1822Y203D01*
X1822Y205D01*
X1820Y205D01*
X1820Y207D01*
X1818Y207D01*
X1818Y209D01*
X1816Y209D01*
X1816Y211D01*
X1814Y211D01*
X1814Y213D01*
X1792Y213D01*
G37*
D02*
G36*
X1892Y213D02*
X1892Y211D01*
X1890Y211D01*
X1890Y209D01*
X1888Y209D01*
X1888Y207D01*
X1886Y207D01*
X1886Y205D01*
X1884Y205D01*
X1884Y203D01*
X1882Y203D01*
X1882Y201D01*
X1880Y201D01*
X1880Y199D01*
X1876Y199D01*
X1876Y197D01*
X1874Y197D01*
X1874Y193D01*
X1942Y193D01*
X1942Y195D01*
X1934Y195D01*
X1934Y197D01*
X1930Y197D01*
X1930Y199D01*
X1928Y199D01*
X1928Y201D01*
X1924Y201D01*
X1924Y203D01*
X1922Y203D01*
X1922Y205D01*
X1920Y205D01*
X1920Y207D01*
X1918Y207D01*
X1918Y209D01*
X1916Y209D01*
X1916Y211D01*
X1914Y211D01*
X1914Y213D01*
X1892Y213D01*
G37*
D02*
G36*
X1992Y213D02*
X1992Y211D01*
X1990Y211D01*
X1990Y209D01*
X1988Y209D01*
X1988Y207D01*
X1986Y207D01*
X1986Y205D01*
X1984Y205D01*
X1984Y203D01*
X1982Y203D01*
X1982Y201D01*
X1980Y201D01*
X1980Y199D01*
X1976Y199D01*
X1976Y197D01*
X1972Y197D01*
X1972Y195D01*
X1966Y195D01*
X1966Y193D01*
X2030Y193D01*
X2030Y199D01*
X2028Y199D01*
X2028Y201D01*
X2024Y201D01*
X2024Y203D01*
X2022Y203D01*
X2022Y205D01*
X2020Y205D01*
X2020Y207D01*
X2018Y207D01*
X2018Y209D01*
X2016Y209D01*
X2016Y211D01*
X2014Y211D01*
X2014Y213D01*
X1992Y213D01*
G37*
D02*
G36*
X1874Y193D02*
X1874Y191D01*
X2030Y191D01*
X2030Y193D01*
X1874Y193D01*
G37*
D02*
G36*
X1874Y193D02*
X1874Y191D01*
X2030Y191D01*
X2030Y193D01*
X1874Y193D01*
G37*
D02*
G36*
X1874Y191D02*
X1874Y119D01*
X1960Y119D01*
X1960Y117D01*
X1968Y117D01*
X1968Y115D01*
X1972Y115D01*
X1972Y113D01*
X1974Y113D01*
X1974Y111D01*
X1978Y111D01*
X1978Y109D01*
X1980Y109D01*
X1980Y107D01*
X1982Y107D01*
X1982Y105D01*
X1984Y105D01*
X1984Y103D01*
X1986Y103D01*
X1986Y101D01*
X1988Y101D01*
X1988Y97D01*
X1990Y97D01*
X1990Y95D01*
X2012Y95D01*
X2012Y99D01*
X2014Y99D01*
X2014Y101D01*
X2016Y101D01*
X2016Y103D01*
X2018Y103D01*
X2018Y105D01*
X2020Y105D01*
X2020Y107D01*
X2022Y107D01*
X2022Y109D01*
X2024Y109D01*
X2024Y111D01*
X2026Y111D01*
X2026Y113D01*
X2030Y113D01*
X2030Y191D01*
X1874Y191D01*
G37*
D02*
G36*
X1874Y119D02*
X1874Y111D01*
X1878Y111D01*
X1878Y109D01*
X1880Y109D01*
X1880Y107D01*
X1882Y107D01*
X1882Y105D01*
X1884Y105D01*
X1884Y103D01*
X1886Y103D01*
X1886Y101D01*
X1888Y101D01*
X1888Y97D01*
X1890Y97D01*
X1890Y95D01*
X1912Y95D01*
X1912Y99D01*
X1914Y99D01*
X1914Y101D01*
X1916Y101D01*
X1916Y103D01*
X1918Y103D01*
X1918Y105D01*
X1920Y105D01*
X1920Y107D01*
X1922Y107D01*
X1922Y109D01*
X1924Y109D01*
X1924Y111D01*
X1926Y111D01*
X1926Y113D01*
X1930Y113D01*
X1930Y115D01*
X1934Y115D01*
X1934Y117D01*
X1942Y117D01*
X1942Y119D01*
X1874Y119D01*
G37*
D02*
G36*
X2092Y213D02*
X2092Y211D01*
X2090Y211D01*
X2090Y209D01*
X2088Y209D01*
X2088Y207D01*
X2086Y207D01*
X2086Y205D01*
X2084Y205D01*
X2084Y203D01*
X2082Y203D01*
X2082Y201D01*
X2080Y201D01*
X2080Y199D01*
X2076Y199D01*
X2076Y197D01*
X2074Y197D01*
X2074Y111D01*
X2078Y111D01*
X2078Y109D01*
X2080Y109D01*
X2080Y107D01*
X2082Y107D01*
X2082Y105D01*
X2084Y105D01*
X2084Y103D01*
X2086Y103D01*
X2086Y101D01*
X2088Y101D01*
X2088Y97D01*
X2090Y97D01*
X2090Y95D01*
X2112Y95D01*
X2112Y99D01*
X2114Y99D01*
X2114Y101D01*
X2116Y101D01*
X2116Y103D01*
X2118Y103D01*
X2118Y105D01*
X2120Y105D01*
X2120Y107D01*
X2122Y107D01*
X2122Y109D01*
X2124Y109D01*
X2124Y111D01*
X2126Y111D01*
X2126Y113D01*
X2130Y113D01*
X2130Y199D01*
X2128Y199D01*
X2128Y201D01*
X2124Y201D01*
X2124Y203D01*
X2122Y203D01*
X2122Y205D01*
X2120Y205D01*
X2120Y207D01*
X2118Y207D01*
X2118Y209D01*
X2116Y209D01*
X2116Y211D01*
X2114Y211D01*
X2114Y213D01*
X2092Y213D01*
G37*
D02*
G36*
X2192Y213D02*
X2192Y211D01*
X2190Y211D01*
X2190Y209D01*
X2188Y209D01*
X2188Y207D01*
X2186Y207D01*
X2186Y205D01*
X2184Y205D01*
X2184Y203D01*
X2182Y203D01*
X2182Y201D01*
X2180Y201D01*
X2180Y199D01*
X2176Y199D01*
X2176Y197D01*
X2174Y197D01*
X2174Y111D01*
X2178Y111D01*
X2178Y109D01*
X2180Y109D01*
X2180Y107D01*
X2182Y107D01*
X2182Y105D01*
X2184Y105D01*
X2184Y103D01*
X2186Y103D01*
X2186Y101D01*
X2188Y101D01*
X2188Y97D01*
X2190Y97D01*
X2190Y95D01*
X2212Y95D01*
X2212Y99D01*
X2214Y99D01*
X2214Y101D01*
X2216Y101D01*
X2216Y103D01*
X2218Y103D01*
X2218Y105D01*
X2220Y105D01*
X2220Y107D01*
X2222Y107D01*
X2222Y109D01*
X2224Y109D01*
X2224Y111D01*
X2226Y111D01*
X2226Y113D01*
X2230Y113D01*
X2230Y199D01*
X2228Y199D01*
X2228Y201D01*
X2224Y201D01*
X2224Y203D01*
X2222Y203D01*
X2222Y205D01*
X2220Y205D01*
X2220Y207D01*
X2218Y207D01*
X2218Y209D01*
X2216Y209D01*
X2216Y211D01*
X2214Y211D01*
X2214Y213D01*
X2192Y213D01*
G37*
D02*
G36*
X396Y707D02*
X396Y705D01*
X376Y705D01*
X376Y703D01*
X362Y703D01*
X362Y701D01*
X350Y701D01*
X350Y699D01*
X340Y699D01*
X340Y697D01*
X330Y697D01*
X330Y695D01*
X324Y695D01*
X324Y693D01*
X316Y693D01*
X316Y691D01*
X308Y691D01*
X308Y689D01*
X302Y689D01*
X302Y687D01*
X296Y687D01*
X296Y685D01*
X290Y685D01*
X290Y683D01*
X286Y683D01*
X286Y681D01*
X280Y681D01*
X280Y679D01*
X274Y679D01*
X274Y677D01*
X270Y677D01*
X270Y675D01*
X266Y675D01*
X266Y673D01*
X260Y673D01*
X260Y671D01*
X256Y671D01*
X256Y669D01*
X252Y669D01*
X252Y667D01*
X248Y667D01*
X248Y665D01*
X244Y665D01*
X244Y663D01*
X240Y663D01*
X240Y661D01*
X236Y661D01*
X236Y659D01*
X234Y659D01*
X234Y657D01*
X230Y657D01*
X230Y655D01*
X226Y655D01*
X226Y653D01*
X222Y653D01*
X222Y651D01*
X220Y651D01*
X220Y649D01*
X216Y649D01*
X216Y647D01*
X212Y647D01*
X212Y645D01*
X210Y645D01*
X210Y643D01*
X662Y643D01*
X662Y645D01*
X656Y645D01*
X656Y647D01*
X650Y647D01*
X650Y649D01*
X646Y649D01*
X646Y651D01*
X644Y651D01*
X644Y653D01*
X642Y653D01*
X642Y655D01*
X638Y655D01*
X638Y657D01*
X636Y657D01*
X636Y661D01*
X634Y661D01*
X634Y663D01*
X632Y663D01*
X632Y665D01*
X630Y665D01*
X630Y669D01*
X628Y669D01*
X628Y673D01*
X626Y673D01*
X626Y681D01*
X624Y681D01*
X624Y707D01*
X396Y707D01*
G37*
D02*
G36*
X718Y707D02*
X718Y683D01*
X716Y683D01*
X716Y675D01*
X714Y675D01*
X714Y669D01*
X712Y669D01*
X712Y667D01*
X710Y667D01*
X710Y663D01*
X708Y663D01*
X708Y661D01*
X706Y661D01*
X706Y659D01*
X704Y659D01*
X704Y657D01*
X702Y657D01*
X702Y655D01*
X700Y655D01*
X700Y653D01*
X698Y653D01*
X698Y651D01*
X694Y651D01*
X694Y649D01*
X692Y649D01*
X692Y647D01*
X686Y647D01*
X686Y645D01*
X678Y645D01*
X678Y643D01*
X918Y643D01*
X918Y645D01*
X912Y645D01*
X912Y647D01*
X906Y647D01*
X906Y649D01*
X902Y649D01*
X902Y651D01*
X900Y651D01*
X900Y653D01*
X898Y653D01*
X898Y655D01*
X894Y655D01*
X894Y657D01*
X892Y657D01*
X892Y661D01*
X890Y661D01*
X890Y663D01*
X888Y663D01*
X888Y665D01*
X886Y665D01*
X886Y669D01*
X884Y669D01*
X884Y673D01*
X882Y673D01*
X882Y681D01*
X880Y681D01*
X880Y707D01*
X718Y707D01*
G37*
D02*
G36*
X974Y707D02*
X974Y683D01*
X972Y683D01*
X972Y675D01*
X970Y675D01*
X970Y669D01*
X968Y669D01*
X968Y667D01*
X966Y667D01*
X966Y663D01*
X964Y663D01*
X964Y661D01*
X962Y661D01*
X962Y659D01*
X960Y659D01*
X960Y657D01*
X958Y657D01*
X958Y655D01*
X956Y655D01*
X956Y653D01*
X954Y653D01*
X954Y651D01*
X950Y651D01*
X950Y649D01*
X948Y649D01*
X948Y647D01*
X942Y647D01*
X942Y645D01*
X934Y645D01*
X934Y643D01*
X1118Y643D01*
X1118Y645D01*
X1116Y645D01*
X1116Y647D01*
X1114Y647D01*
X1114Y651D01*
X1112Y651D01*
X1112Y653D01*
X1110Y653D01*
X1110Y657D01*
X1108Y657D01*
X1108Y665D01*
X1106Y665D01*
X1106Y683D01*
X1108Y683D01*
X1108Y707D01*
X974Y707D01*
G37*
D02*
G36*
X1190Y655D02*
X1190Y651D01*
X1188Y651D01*
X1188Y647D01*
X1186Y647D01*
X1186Y645D01*
X1184Y645D01*
X1184Y643D01*
X1182Y643D01*
X1182Y641D01*
X1180Y641D01*
X1180Y639D01*
X1178Y639D01*
X1178Y637D01*
X1174Y637D01*
X1174Y635D01*
X1170Y635D01*
X1170Y633D01*
X1166Y633D01*
X1166Y631D01*
X1158Y631D01*
X1158Y629D01*
X1242Y629D01*
X1242Y631D01*
X1236Y631D01*
X1236Y633D01*
X1230Y633D01*
X1230Y635D01*
X1228Y635D01*
X1228Y637D01*
X1224Y637D01*
X1224Y639D01*
X1222Y639D01*
X1222Y641D01*
X1220Y641D01*
X1220Y643D01*
X1218Y643D01*
X1218Y645D01*
X1216Y645D01*
X1216Y647D01*
X1214Y647D01*
X1214Y651D01*
X1212Y651D01*
X1212Y653D01*
X1210Y653D01*
X1210Y655D01*
X1190Y655D01*
G37*
D02*
G36*
X1290Y655D02*
X1290Y651D01*
X1288Y651D01*
X1288Y647D01*
X1286Y647D01*
X1286Y645D01*
X1284Y645D01*
X1284Y643D01*
X1282Y643D01*
X1282Y641D01*
X1280Y641D01*
X1280Y639D01*
X1278Y639D01*
X1278Y637D01*
X1274Y637D01*
X1274Y635D01*
X1270Y635D01*
X1270Y633D01*
X1266Y633D01*
X1266Y631D01*
X1258Y631D01*
X1258Y629D01*
X1342Y629D01*
X1342Y631D01*
X1336Y631D01*
X1336Y633D01*
X1330Y633D01*
X1330Y635D01*
X1328Y635D01*
X1328Y637D01*
X1324Y637D01*
X1324Y639D01*
X1322Y639D01*
X1322Y641D01*
X1320Y641D01*
X1320Y643D01*
X1318Y643D01*
X1318Y645D01*
X1316Y645D01*
X1316Y647D01*
X1314Y647D01*
X1314Y651D01*
X1312Y651D01*
X1312Y653D01*
X1310Y653D01*
X1310Y655D01*
X1290Y655D01*
G37*
D02*
G36*
X1390Y655D02*
X1390Y651D01*
X1388Y651D01*
X1388Y647D01*
X1386Y647D01*
X1386Y645D01*
X1384Y645D01*
X1384Y643D01*
X1382Y643D01*
X1382Y641D01*
X1380Y641D01*
X1380Y639D01*
X1378Y639D01*
X1378Y637D01*
X1374Y637D01*
X1374Y635D01*
X1370Y635D01*
X1370Y633D01*
X1366Y633D01*
X1366Y631D01*
X1358Y631D01*
X1358Y629D01*
X1428Y629D01*
X1428Y637D01*
X1424Y637D01*
X1424Y639D01*
X1422Y639D01*
X1422Y641D01*
X1420Y641D01*
X1420Y643D01*
X1418Y643D01*
X1418Y645D01*
X1416Y645D01*
X1416Y647D01*
X1414Y647D01*
X1414Y651D01*
X1412Y651D01*
X1412Y653D01*
X1410Y653D01*
X1410Y655D01*
X1390Y655D01*
G37*
D02*
G36*
X206Y643D02*
X206Y641D01*
X1120Y641D01*
X1120Y643D01*
X206Y643D01*
G37*
D02*
G36*
X206Y643D02*
X206Y641D01*
X1120Y641D01*
X1120Y643D01*
X206Y643D01*
G37*
D02*
G36*
X206Y643D02*
X206Y641D01*
X1120Y641D01*
X1120Y643D01*
X206Y643D01*
G37*
D02*
G36*
X204Y641D02*
X204Y639D01*
X200Y639D01*
X200Y637D01*
X198Y637D01*
X198Y635D01*
X194Y635D01*
X194Y633D01*
X192Y633D01*
X192Y631D01*
X190Y631D01*
X190Y629D01*
X1142Y629D01*
X1142Y631D01*
X1136Y631D01*
X1136Y633D01*
X1130Y633D01*
X1130Y635D01*
X1128Y635D01*
X1128Y637D01*
X1124Y637D01*
X1124Y639D01*
X1122Y639D01*
X1122Y641D01*
X204Y641D01*
G37*
D02*
G36*
X186Y629D02*
X186Y627D01*
X1428Y627D01*
X1428Y629D01*
X186Y629D01*
G37*
D02*
G36*
X186Y629D02*
X186Y627D01*
X1428Y627D01*
X1428Y629D01*
X186Y629D01*
G37*
D02*
G36*
X186Y629D02*
X186Y627D01*
X1428Y627D01*
X1428Y629D01*
X186Y629D01*
G37*
D02*
G36*
X186Y629D02*
X186Y627D01*
X1428Y627D01*
X1428Y629D01*
X186Y629D01*
G37*
D02*
G36*
X184Y627D02*
X184Y625D01*
X182Y625D01*
X182Y623D01*
X178Y623D01*
X178Y621D01*
X176Y621D01*
X176Y619D01*
X174Y619D01*
X174Y617D01*
X172Y617D01*
X172Y615D01*
X170Y615D01*
X170Y613D01*
X166Y613D01*
X166Y611D01*
X164Y611D01*
X164Y609D01*
X162Y609D01*
X162Y607D01*
X160Y607D01*
X160Y605D01*
X158Y605D01*
X158Y603D01*
X156Y603D01*
X156Y601D01*
X154Y601D01*
X154Y599D01*
X152Y599D01*
X152Y597D01*
X150Y597D01*
X150Y595D01*
X148Y595D01*
X148Y593D01*
X146Y593D01*
X146Y591D01*
X144Y591D01*
X144Y589D01*
X142Y589D01*
X142Y587D01*
X140Y587D01*
X140Y585D01*
X138Y585D01*
X138Y583D01*
X136Y583D01*
X136Y581D01*
X134Y581D01*
X134Y579D01*
X132Y579D01*
X132Y577D01*
X130Y577D01*
X130Y573D01*
X128Y573D01*
X128Y571D01*
X126Y571D01*
X126Y569D01*
X180Y569D01*
X180Y567D01*
X186Y567D01*
X186Y565D01*
X192Y565D01*
X192Y563D01*
X194Y563D01*
X194Y561D01*
X198Y561D01*
X198Y559D01*
X936Y559D01*
X936Y557D01*
X944Y557D01*
X944Y555D01*
X948Y555D01*
X948Y553D01*
X952Y553D01*
X952Y551D01*
X954Y551D01*
X954Y549D01*
X956Y549D01*
X956Y547D01*
X960Y547D01*
X960Y545D01*
X962Y545D01*
X962Y541D01*
X964Y541D01*
X964Y539D01*
X966Y539D01*
X966Y537D01*
X968Y537D01*
X968Y533D01*
X970Y533D01*
X970Y527D01*
X972Y527D01*
X972Y521D01*
X974Y521D01*
X974Y505D01*
X972Y505D01*
X972Y497D01*
X970Y497D01*
X970Y491D01*
X968Y491D01*
X968Y489D01*
X966Y489D01*
X966Y485D01*
X964Y485D01*
X964Y483D01*
X962Y483D01*
X962Y463D01*
X964Y463D01*
X964Y455D01*
X966Y455D01*
X966Y447D01*
X968Y447D01*
X968Y349D01*
X1082Y349D01*
X1082Y351D01*
X1078Y351D01*
X1078Y353D01*
X1074Y353D01*
X1074Y355D01*
X1072Y355D01*
X1072Y357D01*
X1068Y357D01*
X1068Y361D01*
X1066Y361D01*
X1066Y363D01*
X1064Y363D01*
X1064Y367D01*
X1062Y367D01*
X1062Y377D01*
X1060Y377D01*
X1060Y381D01*
X1062Y381D01*
X1062Y389D01*
X1064Y389D01*
X1064Y393D01*
X1066Y393D01*
X1066Y397D01*
X1068Y397D01*
X1068Y435D01*
X1070Y435D01*
X1070Y439D01*
X1072Y439D01*
X1072Y441D01*
X1074Y441D01*
X1074Y443D01*
X1076Y443D01*
X1076Y445D01*
X1078Y445D01*
X1078Y447D01*
X1082Y447D01*
X1082Y449D01*
X1086Y449D01*
X1086Y451D01*
X1090Y451D01*
X1090Y453D01*
X1096Y453D01*
X1096Y455D01*
X1100Y455D01*
X1100Y457D01*
X1104Y457D01*
X1104Y459D01*
X1108Y459D01*
X1108Y461D01*
X1114Y461D01*
X1114Y463D01*
X1118Y463D01*
X1118Y465D01*
X1122Y465D01*
X1122Y467D01*
X1126Y467D01*
X1126Y469D01*
X1132Y469D01*
X1132Y471D01*
X1136Y471D01*
X1136Y473D01*
X1140Y473D01*
X1140Y475D01*
X1146Y475D01*
X1146Y477D01*
X1150Y477D01*
X1150Y479D01*
X1154Y479D01*
X1154Y481D01*
X1158Y481D01*
X1158Y483D01*
X1164Y483D01*
X1164Y485D01*
X1168Y485D01*
X1168Y487D01*
X1172Y487D01*
X1172Y489D01*
X1176Y489D01*
X1176Y491D01*
X1182Y491D01*
X1182Y493D01*
X1186Y493D01*
X1186Y495D01*
X1190Y495D01*
X1190Y497D01*
X1196Y497D01*
X1196Y499D01*
X1200Y499D01*
X1200Y501D01*
X1204Y501D01*
X1204Y503D01*
X1208Y503D01*
X1208Y505D01*
X1214Y505D01*
X1214Y507D01*
X1218Y507D01*
X1218Y509D01*
X1222Y509D01*
X1222Y511D01*
X1226Y511D01*
X1226Y513D01*
X1232Y513D01*
X1232Y515D01*
X1236Y515D01*
X1236Y517D01*
X1240Y517D01*
X1240Y519D01*
X1246Y519D01*
X1246Y521D01*
X1250Y521D01*
X1250Y523D01*
X1254Y523D01*
X1254Y525D01*
X1258Y525D01*
X1258Y527D01*
X1264Y527D01*
X1264Y529D01*
X1268Y529D01*
X1268Y531D01*
X1272Y531D01*
X1272Y533D01*
X1278Y533D01*
X1278Y535D01*
X1282Y535D01*
X1282Y537D01*
X1286Y537D01*
X1286Y539D01*
X1290Y539D01*
X1290Y541D01*
X1296Y541D01*
X1296Y543D01*
X1300Y543D01*
X1300Y545D01*
X1304Y545D01*
X1304Y547D01*
X1308Y547D01*
X1308Y549D01*
X1314Y549D01*
X1314Y551D01*
X1318Y551D01*
X1318Y553D01*
X1322Y553D01*
X1322Y555D01*
X1328Y555D01*
X1328Y557D01*
X1332Y557D01*
X1332Y559D01*
X1336Y559D01*
X1336Y561D01*
X1340Y561D01*
X1340Y563D01*
X1346Y563D01*
X1346Y565D01*
X1350Y565D01*
X1350Y567D01*
X1354Y567D01*
X1354Y569D01*
X1358Y569D01*
X1358Y571D01*
X1364Y571D01*
X1364Y573D01*
X1428Y573D01*
X1428Y627D01*
X184Y627D01*
G37*
D02*
G36*
X124Y569D02*
X124Y567D01*
X122Y567D01*
X122Y565D01*
X120Y565D01*
X120Y561D01*
X118Y561D01*
X118Y559D01*
X116Y559D01*
X116Y557D01*
X114Y557D01*
X114Y555D01*
X112Y555D01*
X112Y551D01*
X110Y551D01*
X110Y549D01*
X108Y549D01*
X108Y545D01*
X106Y545D01*
X106Y543D01*
X104Y543D01*
X104Y541D01*
X102Y541D01*
X102Y537D01*
X100Y537D01*
X100Y535D01*
X98Y535D01*
X98Y531D01*
X96Y531D01*
X96Y527D01*
X94Y527D01*
X94Y525D01*
X92Y525D01*
X92Y521D01*
X90Y521D01*
X90Y517D01*
X88Y517D01*
X88Y515D01*
X86Y515D01*
X86Y511D01*
X84Y511D01*
X84Y507D01*
X82Y507D01*
X82Y503D01*
X80Y503D01*
X80Y499D01*
X78Y499D01*
X78Y495D01*
X76Y495D01*
X76Y491D01*
X74Y491D01*
X74Y487D01*
X72Y487D01*
X72Y483D01*
X70Y483D01*
X70Y479D01*
X68Y479D01*
X68Y473D01*
X66Y473D01*
X66Y469D01*
X64Y469D01*
X64Y463D01*
X62Y463D01*
X62Y457D01*
X60Y457D01*
X60Y451D01*
X58Y451D01*
X58Y447D01*
X56Y447D01*
X56Y439D01*
X54Y439D01*
X54Y433D01*
X52Y433D01*
X52Y425D01*
X50Y425D01*
X50Y417D01*
X48Y417D01*
X48Y407D01*
X46Y407D01*
X46Y397D01*
X44Y397D01*
X44Y351D01*
X46Y351D01*
X46Y339D01*
X48Y339D01*
X48Y331D01*
X50Y331D01*
X50Y323D01*
X52Y323D01*
X52Y315D01*
X54Y315D01*
X54Y307D01*
X56Y307D01*
X56Y301D01*
X58Y301D01*
X58Y295D01*
X60Y295D01*
X60Y289D01*
X62Y289D01*
X62Y283D01*
X64Y283D01*
X64Y279D01*
X66Y279D01*
X66Y273D01*
X68Y273D01*
X68Y269D01*
X70Y269D01*
X70Y265D01*
X72Y265D01*
X72Y259D01*
X74Y259D01*
X74Y255D01*
X76Y255D01*
X76Y251D01*
X78Y251D01*
X78Y247D01*
X80Y247D01*
X80Y243D01*
X82Y243D01*
X82Y239D01*
X84Y239D01*
X84Y237D01*
X86Y237D01*
X86Y233D01*
X88Y233D01*
X88Y229D01*
X90Y229D01*
X90Y225D01*
X92Y225D01*
X92Y223D01*
X94Y223D01*
X94Y219D01*
X96Y219D01*
X96Y215D01*
X98Y215D01*
X98Y213D01*
X100Y213D01*
X100Y209D01*
X102Y209D01*
X102Y207D01*
X104Y207D01*
X104Y203D01*
X124Y203D01*
X124Y207D01*
X122Y207D01*
X122Y219D01*
X120Y219D01*
X120Y221D01*
X122Y221D01*
X122Y233D01*
X124Y233D01*
X124Y239D01*
X126Y239D01*
X126Y243D01*
X128Y243D01*
X128Y247D01*
X130Y247D01*
X130Y249D01*
X132Y249D01*
X132Y251D01*
X134Y251D01*
X134Y255D01*
X136Y255D01*
X136Y257D01*
X140Y257D01*
X140Y259D01*
X142Y259D01*
X142Y281D01*
X140Y281D01*
X140Y283D01*
X138Y283D01*
X138Y285D01*
X134Y285D01*
X134Y289D01*
X132Y289D01*
X132Y291D01*
X130Y291D01*
X130Y293D01*
X128Y293D01*
X128Y297D01*
X126Y297D01*
X126Y301D01*
X124Y301D01*
X124Y307D01*
X122Y307D01*
X122Y319D01*
X120Y319D01*
X120Y321D01*
X122Y321D01*
X122Y333D01*
X124Y333D01*
X124Y339D01*
X126Y339D01*
X126Y343D01*
X128Y343D01*
X128Y347D01*
X130Y347D01*
X130Y349D01*
X132Y349D01*
X132Y351D01*
X134Y351D01*
X134Y355D01*
X136Y355D01*
X136Y357D01*
X140Y357D01*
X140Y359D01*
X142Y359D01*
X142Y381D01*
X140Y381D01*
X140Y383D01*
X138Y383D01*
X138Y385D01*
X134Y385D01*
X134Y389D01*
X132Y389D01*
X132Y391D01*
X130Y391D01*
X130Y393D01*
X128Y393D01*
X128Y397D01*
X126Y397D01*
X126Y401D01*
X124Y401D01*
X124Y407D01*
X122Y407D01*
X122Y419D01*
X120Y419D01*
X120Y421D01*
X122Y421D01*
X122Y433D01*
X124Y433D01*
X124Y439D01*
X126Y439D01*
X126Y443D01*
X128Y443D01*
X128Y447D01*
X130Y447D01*
X130Y449D01*
X132Y449D01*
X132Y451D01*
X134Y451D01*
X134Y455D01*
X136Y455D01*
X136Y457D01*
X140Y457D01*
X140Y459D01*
X142Y459D01*
X142Y481D01*
X140Y481D01*
X140Y483D01*
X138Y483D01*
X138Y485D01*
X134Y485D01*
X134Y489D01*
X132Y489D01*
X132Y491D01*
X130Y491D01*
X130Y493D01*
X128Y493D01*
X128Y497D01*
X126Y497D01*
X126Y501D01*
X124Y501D01*
X124Y507D01*
X122Y507D01*
X122Y519D01*
X120Y519D01*
X120Y521D01*
X122Y521D01*
X122Y533D01*
X124Y533D01*
X124Y539D01*
X126Y539D01*
X126Y543D01*
X128Y543D01*
X128Y547D01*
X130Y547D01*
X130Y549D01*
X132Y549D01*
X132Y551D01*
X134Y551D01*
X134Y555D01*
X136Y555D01*
X136Y557D01*
X140Y557D01*
X140Y559D01*
X142Y559D01*
X142Y561D01*
X144Y561D01*
X144Y563D01*
X148Y563D01*
X148Y565D01*
X154Y565D01*
X154Y567D01*
X160Y567D01*
X160Y569D01*
X124Y569D01*
G37*
D02*
G36*
X1472Y567D02*
X1472Y545D01*
X1470Y545D01*
X1470Y541D01*
X1468Y541D01*
X1468Y537D01*
X1466Y537D01*
X1466Y535D01*
X1464Y535D01*
X1464Y533D01*
X1462Y533D01*
X1462Y531D01*
X1458Y531D01*
X1458Y529D01*
X1372Y529D01*
X1372Y527D01*
X1368Y527D01*
X1368Y525D01*
X1364Y525D01*
X1364Y523D01*
X1360Y523D01*
X1360Y521D01*
X1354Y521D01*
X1354Y519D01*
X1350Y519D01*
X1350Y517D01*
X1346Y517D01*
X1346Y515D01*
X1340Y515D01*
X1340Y513D01*
X1336Y513D01*
X1336Y511D01*
X1332Y511D01*
X1332Y509D01*
X1328Y509D01*
X1328Y507D01*
X1322Y507D01*
X1322Y505D01*
X1318Y505D01*
X1318Y503D01*
X1314Y503D01*
X1314Y501D01*
X1310Y501D01*
X1310Y499D01*
X1304Y499D01*
X1304Y497D01*
X1300Y497D01*
X1300Y495D01*
X1296Y495D01*
X1296Y493D01*
X1290Y493D01*
X1290Y491D01*
X1286Y491D01*
X1286Y489D01*
X1282Y489D01*
X1282Y487D01*
X1278Y487D01*
X1278Y485D01*
X1272Y485D01*
X1272Y483D01*
X1268Y483D01*
X1268Y481D01*
X1264Y481D01*
X1264Y479D01*
X1260Y479D01*
X1260Y477D01*
X1254Y477D01*
X1254Y475D01*
X1250Y475D01*
X1250Y473D01*
X1246Y473D01*
X1246Y471D01*
X1240Y471D01*
X1240Y469D01*
X1236Y469D01*
X1236Y467D01*
X1232Y467D01*
X1232Y465D01*
X1228Y465D01*
X1228Y463D01*
X1222Y463D01*
X1222Y461D01*
X1218Y461D01*
X1218Y459D01*
X1214Y459D01*
X1214Y457D01*
X1208Y457D01*
X1208Y455D01*
X1204Y455D01*
X1204Y453D01*
X1200Y453D01*
X1200Y451D01*
X1196Y451D01*
X1196Y449D01*
X1190Y449D01*
X1190Y447D01*
X1186Y447D01*
X1186Y445D01*
X1182Y445D01*
X1182Y443D01*
X1178Y443D01*
X1178Y441D01*
X1172Y441D01*
X1172Y439D01*
X1168Y439D01*
X1168Y437D01*
X1164Y437D01*
X1164Y435D01*
X1158Y435D01*
X1158Y433D01*
X1154Y433D01*
X1154Y431D01*
X1150Y431D01*
X1150Y429D01*
X1146Y429D01*
X1146Y427D01*
X1140Y427D01*
X1140Y425D01*
X1136Y425D01*
X1136Y423D01*
X1132Y423D01*
X1132Y421D01*
X1128Y421D01*
X1128Y419D01*
X1122Y419D01*
X1122Y417D01*
X1118Y417D01*
X1118Y415D01*
X1114Y415D01*
X1114Y395D01*
X1116Y395D01*
X1116Y391D01*
X1118Y391D01*
X1118Y385D01*
X1120Y385D01*
X1120Y371D01*
X1118Y371D01*
X1118Y365D01*
X1116Y365D01*
X1116Y361D01*
X1114Y361D01*
X1114Y359D01*
X1112Y359D01*
X1112Y357D01*
X1110Y357D01*
X1110Y355D01*
X1108Y355D01*
X1108Y353D01*
X1104Y353D01*
X1104Y351D01*
X1098Y351D01*
X1098Y349D01*
X2570Y349D01*
X2570Y351D01*
X2572Y351D01*
X2572Y353D01*
X2574Y353D01*
X2574Y355D01*
X2576Y355D01*
X2576Y357D01*
X2578Y357D01*
X2578Y359D01*
X2580Y359D01*
X2580Y361D01*
X2584Y361D01*
X2584Y363D01*
X2586Y363D01*
X2586Y365D01*
X2588Y365D01*
X2588Y367D01*
X2590Y367D01*
X2590Y369D01*
X2592Y369D01*
X2592Y371D01*
X2594Y371D01*
X2594Y373D01*
X2598Y373D01*
X2598Y375D01*
X2600Y375D01*
X2600Y377D01*
X2602Y377D01*
X2602Y379D01*
X2604Y379D01*
X2604Y381D01*
X2606Y381D01*
X2606Y383D01*
X2608Y383D01*
X2608Y385D01*
X2612Y385D01*
X2612Y387D01*
X2614Y387D01*
X2614Y389D01*
X2616Y389D01*
X2616Y391D01*
X2618Y391D01*
X2618Y393D01*
X2620Y393D01*
X2620Y395D01*
X2622Y395D01*
X2622Y397D01*
X2626Y397D01*
X2626Y399D01*
X2628Y399D01*
X2628Y401D01*
X2630Y401D01*
X2630Y403D01*
X2632Y403D01*
X2632Y405D01*
X2634Y405D01*
X2634Y407D01*
X2636Y407D01*
X2636Y409D01*
X2640Y409D01*
X2640Y411D01*
X2642Y411D01*
X2642Y413D01*
X2644Y413D01*
X2644Y415D01*
X2646Y415D01*
X2646Y417D01*
X2648Y417D01*
X2648Y419D01*
X2650Y419D01*
X2650Y421D01*
X2654Y421D01*
X2654Y423D01*
X2656Y423D01*
X2656Y425D01*
X2658Y425D01*
X2658Y427D01*
X2660Y427D01*
X2660Y429D01*
X2662Y429D01*
X2662Y431D01*
X2664Y431D01*
X2664Y433D01*
X2668Y433D01*
X2668Y435D01*
X2670Y435D01*
X2670Y437D01*
X2672Y437D01*
X2672Y439D01*
X2674Y439D01*
X2674Y441D01*
X2676Y441D01*
X2676Y443D01*
X2678Y443D01*
X2678Y445D01*
X2682Y445D01*
X2682Y447D01*
X2684Y447D01*
X2684Y449D01*
X2686Y449D01*
X2686Y469D01*
X2684Y469D01*
X2684Y471D01*
X2678Y471D01*
X2678Y473D01*
X2670Y473D01*
X2670Y475D01*
X2664Y475D01*
X2664Y477D01*
X2656Y477D01*
X2656Y479D01*
X2650Y479D01*
X2650Y481D01*
X2642Y481D01*
X2642Y483D01*
X2636Y483D01*
X2636Y485D01*
X2628Y485D01*
X2628Y487D01*
X2622Y487D01*
X2622Y489D01*
X2614Y489D01*
X2614Y491D01*
X2608Y491D01*
X2608Y493D01*
X2600Y493D01*
X2600Y495D01*
X2594Y495D01*
X2594Y497D01*
X2588Y497D01*
X2588Y499D01*
X2580Y499D01*
X2580Y501D01*
X2574Y501D01*
X2574Y503D01*
X2566Y503D01*
X2566Y505D01*
X2560Y505D01*
X2560Y507D01*
X2552Y507D01*
X2552Y509D01*
X2546Y509D01*
X2546Y511D01*
X2538Y511D01*
X2538Y513D01*
X2532Y513D01*
X2532Y515D01*
X2524Y515D01*
X2524Y517D01*
X2518Y517D01*
X2518Y519D01*
X2510Y519D01*
X2510Y521D01*
X2504Y521D01*
X2504Y523D01*
X2496Y523D01*
X2496Y525D01*
X2490Y525D01*
X2490Y527D01*
X2484Y527D01*
X2484Y529D01*
X2476Y529D01*
X2476Y531D01*
X2470Y531D01*
X2470Y533D01*
X2462Y533D01*
X2462Y535D01*
X2456Y535D01*
X2456Y537D01*
X2448Y537D01*
X2448Y539D01*
X2442Y539D01*
X2442Y541D01*
X2434Y541D01*
X2434Y543D01*
X2428Y543D01*
X2428Y545D01*
X2420Y545D01*
X2420Y547D01*
X2414Y547D01*
X2414Y549D01*
X2406Y549D01*
X2406Y551D01*
X2400Y551D01*
X2400Y553D01*
X2394Y553D01*
X2394Y555D01*
X2386Y555D01*
X2386Y557D01*
X2380Y557D01*
X2380Y559D01*
X2372Y559D01*
X2372Y561D01*
X2366Y561D01*
X2366Y563D01*
X2226Y563D01*
X2226Y565D01*
X1762Y565D01*
X1762Y567D01*
X1472Y567D01*
G37*
D02*
G36*
X200Y559D02*
X200Y557D01*
X204Y557D01*
X204Y555D01*
X206Y555D01*
X206Y551D01*
X208Y551D01*
X208Y549D01*
X210Y549D01*
X210Y547D01*
X212Y547D01*
X212Y543D01*
X214Y543D01*
X214Y539D01*
X216Y539D01*
X216Y533D01*
X218Y533D01*
X218Y507D01*
X216Y507D01*
X216Y501D01*
X214Y501D01*
X214Y497D01*
X212Y497D01*
X212Y493D01*
X210Y493D01*
X210Y491D01*
X208Y491D01*
X208Y489D01*
X206Y489D01*
X206Y485D01*
X202Y485D01*
X202Y483D01*
X200Y483D01*
X200Y481D01*
X198Y481D01*
X198Y465D01*
X662Y465D01*
X662Y467D01*
X656Y467D01*
X656Y469D01*
X650Y469D01*
X650Y471D01*
X646Y471D01*
X646Y473D01*
X644Y473D01*
X644Y475D01*
X642Y475D01*
X642Y477D01*
X638Y477D01*
X638Y479D01*
X636Y479D01*
X636Y483D01*
X634Y483D01*
X634Y485D01*
X632Y485D01*
X632Y487D01*
X630Y487D01*
X630Y491D01*
X628Y491D01*
X628Y495D01*
X626Y495D01*
X626Y503D01*
X624Y503D01*
X624Y523D01*
X626Y523D01*
X626Y529D01*
X628Y529D01*
X628Y533D01*
X630Y533D01*
X630Y537D01*
X632Y537D01*
X632Y539D01*
X634Y539D01*
X634Y543D01*
X636Y543D01*
X636Y545D01*
X638Y545D01*
X638Y547D01*
X640Y547D01*
X640Y549D01*
X644Y549D01*
X644Y551D01*
X646Y551D01*
X646Y553D01*
X650Y553D01*
X650Y555D01*
X654Y555D01*
X654Y557D01*
X660Y557D01*
X660Y559D01*
X200Y559D01*
G37*
D02*
G36*
X680Y559D02*
X680Y557D01*
X688Y557D01*
X688Y555D01*
X692Y555D01*
X692Y553D01*
X696Y553D01*
X696Y551D01*
X698Y551D01*
X698Y549D01*
X700Y549D01*
X700Y547D01*
X704Y547D01*
X704Y545D01*
X706Y545D01*
X706Y541D01*
X708Y541D01*
X708Y539D01*
X710Y539D01*
X710Y537D01*
X712Y537D01*
X712Y533D01*
X714Y533D01*
X714Y527D01*
X716Y527D01*
X716Y521D01*
X718Y521D01*
X718Y505D01*
X716Y505D01*
X716Y497D01*
X714Y497D01*
X714Y491D01*
X712Y491D01*
X712Y489D01*
X710Y489D01*
X710Y485D01*
X708Y485D01*
X708Y483D01*
X706Y483D01*
X706Y481D01*
X704Y481D01*
X704Y479D01*
X702Y479D01*
X702Y477D01*
X700Y477D01*
X700Y475D01*
X698Y475D01*
X698Y473D01*
X694Y473D01*
X694Y471D01*
X692Y471D01*
X692Y469D01*
X686Y469D01*
X686Y467D01*
X678Y467D01*
X678Y465D01*
X916Y465D01*
X916Y467D01*
X912Y467D01*
X912Y469D01*
X906Y469D01*
X906Y471D01*
X902Y471D01*
X902Y473D01*
X900Y473D01*
X900Y475D01*
X898Y475D01*
X898Y477D01*
X894Y477D01*
X894Y479D01*
X892Y479D01*
X892Y483D01*
X890Y483D01*
X890Y485D01*
X888Y485D01*
X888Y487D01*
X886Y487D01*
X886Y491D01*
X884Y491D01*
X884Y495D01*
X882Y495D01*
X882Y503D01*
X880Y503D01*
X880Y523D01*
X882Y523D01*
X882Y529D01*
X884Y529D01*
X884Y533D01*
X886Y533D01*
X886Y537D01*
X888Y537D01*
X888Y539D01*
X890Y539D01*
X890Y543D01*
X892Y543D01*
X892Y545D01*
X894Y545D01*
X894Y547D01*
X896Y547D01*
X896Y549D01*
X900Y549D01*
X900Y551D01*
X902Y551D01*
X902Y553D01*
X906Y553D01*
X906Y555D01*
X910Y555D01*
X910Y557D01*
X916Y557D01*
X916Y559D01*
X680Y559D01*
G37*
D02*
G36*
X198Y465D02*
X198Y463D01*
X916Y463D01*
X916Y465D01*
X198Y465D01*
G37*
D02*
G36*
X198Y465D02*
X198Y463D01*
X916Y463D01*
X916Y465D01*
X198Y465D01*
G37*
D02*
G36*
X198Y463D02*
X198Y459D01*
X200Y459D01*
X200Y457D01*
X204Y457D01*
X204Y455D01*
X206Y455D01*
X206Y451D01*
X208Y451D01*
X208Y449D01*
X210Y449D01*
X210Y447D01*
X212Y447D01*
X212Y443D01*
X214Y443D01*
X214Y439D01*
X216Y439D01*
X216Y433D01*
X218Y433D01*
X218Y407D01*
X216Y407D01*
X216Y401D01*
X214Y401D01*
X214Y397D01*
X212Y397D01*
X212Y393D01*
X210Y393D01*
X210Y391D01*
X208Y391D01*
X208Y389D01*
X206Y389D01*
X206Y385D01*
X202Y385D01*
X202Y383D01*
X200Y383D01*
X200Y381D01*
X198Y381D01*
X198Y359D01*
X200Y359D01*
X200Y357D01*
X204Y357D01*
X204Y355D01*
X206Y355D01*
X206Y351D01*
X208Y351D01*
X208Y349D01*
X210Y349D01*
X210Y347D01*
X212Y347D01*
X212Y343D01*
X214Y343D01*
X214Y339D01*
X216Y339D01*
X216Y333D01*
X218Y333D01*
X218Y307D01*
X216Y307D01*
X216Y301D01*
X214Y301D01*
X214Y297D01*
X212Y297D01*
X212Y293D01*
X210Y293D01*
X210Y291D01*
X208Y291D01*
X208Y289D01*
X206Y289D01*
X206Y285D01*
X202Y285D01*
X202Y283D01*
X200Y283D01*
X200Y281D01*
X198Y281D01*
X198Y259D01*
X200Y259D01*
X200Y257D01*
X204Y257D01*
X204Y255D01*
X206Y255D01*
X206Y251D01*
X208Y251D01*
X208Y249D01*
X210Y249D01*
X210Y247D01*
X212Y247D01*
X212Y243D01*
X214Y243D01*
X214Y239D01*
X216Y239D01*
X216Y233D01*
X218Y233D01*
X218Y207D01*
X216Y207D01*
X216Y201D01*
X214Y201D01*
X214Y197D01*
X212Y197D01*
X212Y193D01*
X210Y193D01*
X210Y191D01*
X208Y191D01*
X208Y189D01*
X206Y189D01*
X206Y185D01*
X202Y185D01*
X202Y183D01*
X200Y183D01*
X200Y181D01*
X198Y181D01*
X198Y179D01*
X194Y179D01*
X194Y177D01*
X190Y177D01*
X190Y175D01*
X186Y175D01*
X186Y173D01*
X178Y173D01*
X178Y171D01*
X400Y171D01*
X400Y175D01*
X402Y175D01*
X402Y179D01*
X404Y179D01*
X404Y181D01*
X408Y181D01*
X408Y183D01*
X410Y183D01*
X410Y185D01*
X412Y185D01*
X412Y187D01*
X414Y187D01*
X414Y189D01*
X416Y189D01*
X416Y191D01*
X418Y191D01*
X418Y193D01*
X422Y193D01*
X422Y195D01*
X424Y195D01*
X424Y197D01*
X426Y197D01*
X426Y199D01*
X428Y199D01*
X428Y201D01*
X430Y201D01*
X430Y203D01*
X432Y203D01*
X432Y205D01*
X436Y205D01*
X436Y207D01*
X438Y207D01*
X438Y209D01*
X440Y209D01*
X440Y211D01*
X442Y211D01*
X442Y213D01*
X444Y213D01*
X444Y215D01*
X446Y215D01*
X446Y217D01*
X450Y217D01*
X450Y219D01*
X452Y219D01*
X452Y221D01*
X454Y221D01*
X454Y223D01*
X456Y223D01*
X456Y225D01*
X458Y225D01*
X458Y227D01*
X460Y227D01*
X460Y229D01*
X464Y229D01*
X464Y231D01*
X466Y231D01*
X466Y233D01*
X468Y233D01*
X468Y235D01*
X470Y235D01*
X470Y237D01*
X472Y237D01*
X472Y239D01*
X474Y239D01*
X474Y241D01*
X478Y241D01*
X478Y243D01*
X480Y243D01*
X480Y245D01*
X482Y245D01*
X482Y247D01*
X484Y247D01*
X484Y249D01*
X486Y249D01*
X486Y251D01*
X488Y251D01*
X488Y253D01*
X492Y253D01*
X492Y255D01*
X494Y255D01*
X494Y257D01*
X496Y257D01*
X496Y259D01*
X498Y259D01*
X498Y261D01*
X500Y261D01*
X500Y263D01*
X502Y263D01*
X502Y265D01*
X506Y265D01*
X506Y267D01*
X508Y267D01*
X508Y269D01*
X510Y269D01*
X510Y271D01*
X512Y271D01*
X512Y273D01*
X514Y273D01*
X514Y275D01*
X516Y275D01*
X516Y277D01*
X520Y277D01*
X520Y279D01*
X522Y279D01*
X522Y281D01*
X524Y281D01*
X524Y283D01*
X526Y283D01*
X526Y285D01*
X528Y285D01*
X528Y287D01*
X530Y287D01*
X530Y289D01*
X534Y289D01*
X534Y291D01*
X536Y291D01*
X536Y293D01*
X538Y293D01*
X538Y295D01*
X540Y295D01*
X540Y297D01*
X542Y297D01*
X542Y299D01*
X544Y299D01*
X544Y301D01*
X548Y301D01*
X548Y303D01*
X550Y303D01*
X550Y305D01*
X552Y305D01*
X552Y307D01*
X554Y307D01*
X554Y309D01*
X556Y309D01*
X556Y311D01*
X560Y311D01*
X560Y313D01*
X564Y313D01*
X564Y315D01*
X608Y315D01*
X608Y317D01*
X768Y317D01*
X768Y319D01*
X924Y319D01*
X924Y441D01*
X922Y441D01*
X922Y449D01*
X920Y449D01*
X920Y457D01*
X918Y457D01*
X918Y463D01*
X198Y463D01*
G37*
D02*
G36*
X968Y349D02*
X968Y347D01*
X2566Y347D01*
X2566Y349D01*
X968Y349D01*
G37*
D02*
G36*
X968Y349D02*
X968Y347D01*
X2566Y347D01*
X2566Y349D01*
X968Y349D01*
G37*
D02*
G36*
X968Y347D02*
X968Y329D01*
X1188Y329D01*
X1188Y327D01*
X1192Y327D01*
X1192Y325D01*
X1196Y325D01*
X1196Y323D01*
X1198Y323D01*
X1198Y321D01*
X1200Y321D01*
X1200Y319D01*
X2482Y319D01*
X2482Y317D01*
X2486Y317D01*
X2486Y315D01*
X2490Y315D01*
X2490Y313D01*
X2528Y313D01*
X2528Y315D01*
X2530Y315D01*
X2530Y317D01*
X2532Y317D01*
X2532Y319D01*
X2534Y319D01*
X2534Y321D01*
X2536Y321D01*
X2536Y323D01*
X2538Y323D01*
X2538Y325D01*
X2542Y325D01*
X2542Y327D01*
X2544Y327D01*
X2544Y329D01*
X2546Y329D01*
X2546Y331D01*
X2548Y331D01*
X2548Y333D01*
X2550Y333D01*
X2550Y335D01*
X2552Y335D01*
X2552Y337D01*
X2556Y337D01*
X2556Y339D01*
X2558Y339D01*
X2558Y341D01*
X2560Y341D01*
X2560Y343D01*
X2562Y343D01*
X2562Y345D01*
X2564Y345D01*
X2564Y347D01*
X968Y347D01*
G37*
D02*
G36*
X968Y329D02*
X968Y321D01*
X1158Y321D01*
X1158Y323D01*
X1162Y323D01*
X1162Y325D01*
X1164Y325D01*
X1164Y327D01*
X1168Y327D01*
X1168Y329D01*
X968Y329D01*
G37*
D02*
G36*
X1202Y319D02*
X1202Y317D01*
X1204Y317D01*
X1204Y313D01*
X1206Y313D01*
X1206Y309D01*
X1208Y309D01*
X1208Y291D01*
X2358Y291D01*
X2358Y289D01*
X2366Y289D01*
X2366Y287D01*
X2372Y287D01*
X2372Y285D01*
X2376Y285D01*
X2376Y283D01*
X2380Y283D01*
X2380Y281D01*
X2382Y281D01*
X2382Y279D01*
X2386Y279D01*
X2386Y277D01*
X2388Y277D01*
X2388Y275D01*
X2390Y275D01*
X2390Y271D01*
X2392Y271D01*
X2392Y269D01*
X2394Y269D01*
X2394Y267D01*
X2396Y267D01*
X2396Y263D01*
X2398Y263D01*
X2398Y257D01*
X2400Y257D01*
X2400Y251D01*
X2402Y251D01*
X2402Y231D01*
X2400Y231D01*
X2400Y225D01*
X2398Y225D01*
X2398Y219D01*
X2396Y219D01*
X2396Y217D01*
X2394Y217D01*
X2394Y213D01*
X2392Y213D01*
X2392Y211D01*
X2390Y211D01*
X2390Y209D01*
X2388Y209D01*
X2388Y207D01*
X2386Y207D01*
X2386Y205D01*
X2384Y205D01*
X2384Y203D01*
X2382Y203D01*
X2382Y201D01*
X2380Y201D01*
X2380Y199D01*
X2376Y199D01*
X2376Y197D01*
X2372Y197D01*
X2372Y195D01*
X2366Y195D01*
X2366Y193D01*
X2482Y193D01*
X2482Y207D01*
X2480Y207D01*
X2480Y209D01*
X2478Y209D01*
X2478Y215D01*
X2476Y215D01*
X2476Y233D01*
X2478Y233D01*
X2478Y237D01*
X2480Y237D01*
X2480Y241D01*
X2482Y241D01*
X2482Y243D01*
X2484Y243D01*
X2484Y261D01*
X2462Y261D01*
X2462Y263D01*
X2458Y263D01*
X2458Y265D01*
X2456Y265D01*
X2456Y267D01*
X2452Y267D01*
X2452Y269D01*
X2450Y269D01*
X2450Y271D01*
X2448Y271D01*
X2448Y275D01*
X2446Y275D01*
X2446Y279D01*
X2444Y279D01*
X2444Y287D01*
X2442Y287D01*
X2442Y293D01*
X2444Y293D01*
X2444Y301D01*
X2446Y301D01*
X2446Y305D01*
X2448Y305D01*
X2448Y309D01*
X2450Y309D01*
X2450Y311D01*
X2452Y311D01*
X2452Y313D01*
X2456Y313D01*
X2456Y315D01*
X2458Y315D01*
X2458Y317D01*
X2462Y317D01*
X2462Y319D01*
X1202Y319D01*
G37*
D02*
G36*
X1206Y291D02*
X1206Y287D01*
X1204Y287D01*
X1204Y283D01*
X1202Y283D01*
X1202Y281D01*
X1200Y281D01*
X1200Y279D01*
X1198Y279D01*
X1198Y277D01*
X1196Y277D01*
X1196Y275D01*
X1192Y275D01*
X1192Y273D01*
X1188Y273D01*
X1188Y271D01*
X1416Y271D01*
X1416Y275D01*
X1418Y275D01*
X1418Y277D01*
X1422Y277D01*
X1422Y279D01*
X1424Y279D01*
X1424Y281D01*
X1426Y281D01*
X1426Y283D01*
X1430Y283D01*
X1430Y285D01*
X1434Y285D01*
X1434Y287D01*
X1440Y287D01*
X1440Y289D01*
X1448Y289D01*
X1448Y291D01*
X1206Y291D01*
G37*
D02*
G36*
X1458Y291D02*
X1458Y289D01*
X1466Y289D01*
X1466Y287D01*
X1472Y287D01*
X1472Y285D01*
X1476Y285D01*
X1476Y283D01*
X1480Y283D01*
X1480Y281D01*
X1482Y281D01*
X1482Y279D01*
X1486Y279D01*
X1486Y277D01*
X1488Y277D01*
X1488Y275D01*
X1490Y275D01*
X1490Y271D01*
X1492Y271D01*
X1492Y269D01*
X1514Y269D01*
X1514Y271D01*
X1516Y271D01*
X1516Y275D01*
X1518Y275D01*
X1518Y277D01*
X1522Y277D01*
X1522Y279D01*
X1524Y279D01*
X1524Y281D01*
X1526Y281D01*
X1526Y283D01*
X1530Y283D01*
X1530Y285D01*
X1534Y285D01*
X1534Y287D01*
X1540Y287D01*
X1540Y289D01*
X1548Y289D01*
X1548Y291D01*
X1458Y291D01*
G37*
D02*
G36*
X1558Y291D02*
X1558Y289D01*
X1566Y289D01*
X1566Y287D01*
X1572Y287D01*
X1572Y285D01*
X1576Y285D01*
X1576Y283D01*
X1580Y283D01*
X1580Y281D01*
X1582Y281D01*
X1582Y279D01*
X1586Y279D01*
X1586Y277D01*
X1588Y277D01*
X1588Y275D01*
X1590Y275D01*
X1590Y271D01*
X1592Y271D01*
X1592Y269D01*
X1614Y269D01*
X1614Y271D01*
X1616Y271D01*
X1616Y275D01*
X1618Y275D01*
X1618Y277D01*
X1622Y277D01*
X1622Y279D01*
X1624Y279D01*
X1624Y281D01*
X1626Y281D01*
X1626Y283D01*
X1630Y283D01*
X1630Y285D01*
X1634Y285D01*
X1634Y287D01*
X1640Y287D01*
X1640Y289D01*
X1648Y289D01*
X1648Y291D01*
X1558Y291D01*
G37*
D02*
G36*
X1658Y291D02*
X1658Y289D01*
X1666Y289D01*
X1666Y287D01*
X1672Y287D01*
X1672Y285D01*
X1676Y285D01*
X1676Y283D01*
X1680Y283D01*
X1680Y281D01*
X1682Y281D01*
X1682Y279D01*
X1686Y279D01*
X1686Y277D01*
X1688Y277D01*
X1688Y275D01*
X1690Y275D01*
X1690Y271D01*
X1692Y271D01*
X1692Y269D01*
X1714Y269D01*
X1714Y271D01*
X1716Y271D01*
X1716Y275D01*
X1718Y275D01*
X1718Y277D01*
X1722Y277D01*
X1722Y279D01*
X1724Y279D01*
X1724Y281D01*
X1726Y281D01*
X1726Y283D01*
X1730Y283D01*
X1730Y285D01*
X1734Y285D01*
X1734Y287D01*
X1740Y287D01*
X1740Y289D01*
X1748Y289D01*
X1748Y291D01*
X1658Y291D01*
G37*
D02*
G36*
X1758Y291D02*
X1758Y289D01*
X1766Y289D01*
X1766Y287D01*
X1772Y287D01*
X1772Y285D01*
X1776Y285D01*
X1776Y283D01*
X1780Y283D01*
X1780Y281D01*
X1782Y281D01*
X1782Y279D01*
X1786Y279D01*
X1786Y277D01*
X1788Y277D01*
X1788Y275D01*
X1790Y275D01*
X1790Y271D01*
X1792Y271D01*
X1792Y269D01*
X1814Y269D01*
X1814Y271D01*
X1816Y271D01*
X1816Y275D01*
X1818Y275D01*
X1818Y277D01*
X1822Y277D01*
X1822Y279D01*
X1824Y279D01*
X1824Y281D01*
X1826Y281D01*
X1826Y283D01*
X1830Y283D01*
X1830Y285D01*
X1834Y285D01*
X1834Y287D01*
X1840Y287D01*
X1840Y289D01*
X1848Y289D01*
X1848Y291D01*
X1758Y291D01*
G37*
D02*
G36*
X1858Y291D02*
X1858Y289D01*
X1866Y289D01*
X1866Y287D01*
X1872Y287D01*
X1872Y285D01*
X1876Y285D01*
X1876Y283D01*
X1880Y283D01*
X1880Y281D01*
X1882Y281D01*
X1882Y279D01*
X1886Y279D01*
X1886Y277D01*
X1888Y277D01*
X1888Y275D01*
X1890Y275D01*
X1890Y271D01*
X1892Y271D01*
X1892Y269D01*
X1914Y269D01*
X1914Y271D01*
X1916Y271D01*
X1916Y275D01*
X1918Y275D01*
X1918Y277D01*
X1922Y277D01*
X1922Y279D01*
X1924Y279D01*
X1924Y281D01*
X1926Y281D01*
X1926Y283D01*
X1930Y283D01*
X1930Y285D01*
X1934Y285D01*
X1934Y287D01*
X1940Y287D01*
X1940Y289D01*
X1948Y289D01*
X1948Y291D01*
X1858Y291D01*
G37*
D02*
G36*
X1958Y291D02*
X1958Y289D01*
X1966Y289D01*
X1966Y287D01*
X1972Y287D01*
X1972Y285D01*
X1976Y285D01*
X1976Y283D01*
X1980Y283D01*
X1980Y281D01*
X1982Y281D01*
X1982Y279D01*
X1986Y279D01*
X1986Y277D01*
X1988Y277D01*
X1988Y275D01*
X1990Y275D01*
X1990Y271D01*
X1992Y271D01*
X1992Y269D01*
X2014Y269D01*
X2014Y271D01*
X2016Y271D01*
X2016Y275D01*
X2018Y275D01*
X2018Y277D01*
X2022Y277D01*
X2022Y279D01*
X2024Y279D01*
X2024Y281D01*
X2026Y281D01*
X2026Y283D01*
X2030Y283D01*
X2030Y285D01*
X2034Y285D01*
X2034Y287D01*
X2040Y287D01*
X2040Y289D01*
X2048Y289D01*
X2048Y291D01*
X1958Y291D01*
G37*
D02*
G36*
X2058Y291D02*
X2058Y289D01*
X2066Y289D01*
X2066Y287D01*
X2072Y287D01*
X2072Y285D01*
X2076Y285D01*
X2076Y283D01*
X2080Y283D01*
X2080Y281D01*
X2082Y281D01*
X2082Y279D01*
X2086Y279D01*
X2086Y277D01*
X2088Y277D01*
X2088Y275D01*
X2090Y275D01*
X2090Y271D01*
X2092Y271D01*
X2092Y269D01*
X2114Y269D01*
X2114Y271D01*
X2116Y271D01*
X2116Y275D01*
X2118Y275D01*
X2118Y277D01*
X2122Y277D01*
X2122Y279D01*
X2124Y279D01*
X2124Y281D01*
X2126Y281D01*
X2126Y283D01*
X2130Y283D01*
X2130Y285D01*
X2134Y285D01*
X2134Y287D01*
X2140Y287D01*
X2140Y289D01*
X2148Y289D01*
X2148Y291D01*
X2058Y291D01*
G37*
D02*
G36*
X2158Y291D02*
X2158Y289D01*
X2166Y289D01*
X2166Y287D01*
X2172Y287D01*
X2172Y285D01*
X2176Y285D01*
X2176Y283D01*
X2180Y283D01*
X2180Y281D01*
X2182Y281D01*
X2182Y279D01*
X2186Y279D01*
X2186Y277D01*
X2188Y277D01*
X2188Y275D01*
X2190Y275D01*
X2190Y271D01*
X2192Y271D01*
X2192Y269D01*
X2214Y269D01*
X2214Y271D01*
X2216Y271D01*
X2216Y275D01*
X2218Y275D01*
X2218Y277D01*
X2222Y277D01*
X2222Y279D01*
X2224Y279D01*
X2224Y281D01*
X2226Y281D01*
X2226Y283D01*
X2230Y283D01*
X2230Y285D01*
X2234Y285D01*
X2234Y287D01*
X2240Y287D01*
X2240Y289D01*
X2248Y289D01*
X2248Y291D01*
X2158Y291D01*
G37*
D02*
G36*
X2258Y291D02*
X2258Y289D01*
X2266Y289D01*
X2266Y287D01*
X2272Y287D01*
X2272Y285D01*
X2276Y285D01*
X2276Y283D01*
X2280Y283D01*
X2280Y281D01*
X2282Y281D01*
X2282Y279D01*
X2286Y279D01*
X2286Y277D01*
X2288Y277D01*
X2288Y275D01*
X2290Y275D01*
X2290Y271D01*
X2292Y271D01*
X2292Y269D01*
X2314Y269D01*
X2314Y271D01*
X2316Y271D01*
X2316Y275D01*
X2318Y275D01*
X2318Y277D01*
X2322Y277D01*
X2322Y279D01*
X2324Y279D01*
X2324Y281D01*
X2326Y281D01*
X2326Y283D01*
X2330Y283D01*
X2330Y285D01*
X2334Y285D01*
X2334Y287D01*
X2340Y287D01*
X2340Y289D01*
X2348Y289D01*
X2348Y291D01*
X2258Y291D01*
G37*
D02*
G36*
X966Y277D02*
X966Y275D01*
X962Y275D01*
X962Y273D01*
X960Y273D01*
X960Y271D01*
X1170Y271D01*
X1170Y273D01*
X1164Y273D01*
X1164Y275D01*
X1162Y275D01*
X1162Y277D01*
X966Y277D01*
G37*
D02*
G36*
X770Y275D02*
X770Y273D01*
X610Y273D01*
X610Y271D01*
X578Y271D01*
X578Y269D01*
X938Y269D01*
X938Y271D01*
X932Y271D01*
X932Y273D01*
X930Y273D01*
X930Y275D01*
X770Y275D01*
G37*
D02*
G36*
X954Y271D02*
X954Y269D01*
X1414Y269D01*
X1414Y271D01*
X954Y271D01*
G37*
D02*
G36*
X954Y271D02*
X954Y269D01*
X1414Y269D01*
X1414Y271D01*
X954Y271D01*
G37*
D02*
G36*
X576Y269D02*
X576Y267D01*
X1412Y267D01*
X1412Y269D01*
X576Y269D01*
G37*
D02*
G36*
X576Y269D02*
X576Y267D01*
X1412Y267D01*
X1412Y269D01*
X576Y269D01*
G37*
D02*
G36*
X572Y267D02*
X572Y265D01*
X570Y265D01*
X570Y263D01*
X568Y263D01*
X568Y261D01*
X566Y261D01*
X566Y259D01*
X564Y259D01*
X564Y257D01*
X562Y257D01*
X562Y255D01*
X558Y255D01*
X558Y253D01*
X556Y253D01*
X556Y251D01*
X554Y251D01*
X554Y249D01*
X552Y249D01*
X552Y247D01*
X550Y247D01*
X550Y245D01*
X548Y245D01*
X548Y243D01*
X544Y243D01*
X544Y241D01*
X542Y241D01*
X542Y239D01*
X540Y239D01*
X540Y237D01*
X538Y237D01*
X538Y235D01*
X536Y235D01*
X536Y233D01*
X534Y233D01*
X534Y231D01*
X530Y231D01*
X530Y229D01*
X528Y229D01*
X528Y227D01*
X526Y227D01*
X526Y225D01*
X524Y225D01*
X524Y223D01*
X522Y223D01*
X522Y221D01*
X520Y221D01*
X520Y219D01*
X516Y219D01*
X516Y217D01*
X514Y217D01*
X514Y215D01*
X512Y215D01*
X512Y213D01*
X510Y213D01*
X510Y211D01*
X508Y211D01*
X508Y209D01*
X506Y209D01*
X506Y207D01*
X502Y207D01*
X502Y205D01*
X500Y205D01*
X500Y203D01*
X498Y203D01*
X498Y201D01*
X914Y201D01*
X914Y193D01*
X1442Y193D01*
X1442Y195D01*
X1434Y195D01*
X1434Y197D01*
X1430Y197D01*
X1430Y199D01*
X1428Y199D01*
X1428Y201D01*
X1424Y201D01*
X1424Y203D01*
X1422Y203D01*
X1422Y205D01*
X1420Y205D01*
X1420Y207D01*
X1418Y207D01*
X1418Y209D01*
X1416Y209D01*
X1416Y211D01*
X1414Y211D01*
X1414Y213D01*
X1412Y213D01*
X1412Y217D01*
X1410Y217D01*
X1410Y221D01*
X1408Y221D01*
X1408Y225D01*
X1406Y225D01*
X1406Y233D01*
X1404Y233D01*
X1404Y249D01*
X1406Y249D01*
X1406Y257D01*
X1408Y257D01*
X1408Y263D01*
X1410Y263D01*
X1410Y265D01*
X1412Y265D01*
X1412Y267D01*
X572Y267D01*
G37*
D02*
G36*
X1492Y213D02*
X1492Y211D01*
X1490Y211D01*
X1490Y209D01*
X1488Y209D01*
X1488Y207D01*
X1486Y207D01*
X1486Y205D01*
X1484Y205D01*
X1484Y203D01*
X1482Y203D01*
X1482Y201D01*
X1480Y201D01*
X1480Y199D01*
X1476Y199D01*
X1476Y197D01*
X1472Y197D01*
X1472Y195D01*
X1466Y195D01*
X1466Y193D01*
X1530Y193D01*
X1530Y199D01*
X1528Y199D01*
X1528Y201D01*
X1524Y201D01*
X1524Y203D01*
X1522Y203D01*
X1522Y205D01*
X1520Y205D01*
X1520Y207D01*
X1518Y207D01*
X1518Y209D01*
X1516Y209D01*
X1516Y211D01*
X1514Y211D01*
X1514Y213D01*
X1492Y213D01*
G37*
D02*
G36*
X2292Y213D02*
X2292Y211D01*
X2290Y211D01*
X2290Y209D01*
X2288Y209D01*
X2288Y207D01*
X2286Y207D01*
X2286Y205D01*
X2284Y205D01*
X2284Y203D01*
X2282Y203D01*
X2282Y201D01*
X2280Y201D01*
X2280Y199D01*
X2276Y199D01*
X2276Y197D01*
X2274Y197D01*
X2274Y193D01*
X2342Y193D01*
X2342Y195D01*
X2334Y195D01*
X2334Y197D01*
X2330Y197D01*
X2330Y199D01*
X2328Y199D01*
X2328Y201D01*
X2324Y201D01*
X2324Y203D01*
X2322Y203D01*
X2322Y205D01*
X2320Y205D01*
X2320Y207D01*
X2318Y207D01*
X2318Y209D01*
X2316Y209D01*
X2316Y211D01*
X2314Y211D01*
X2314Y213D01*
X2292Y213D01*
G37*
D02*
G36*
X496Y201D02*
X496Y199D01*
X494Y199D01*
X494Y197D01*
X492Y197D01*
X492Y195D01*
X488Y195D01*
X488Y193D01*
X486Y193D01*
X486Y191D01*
X484Y191D01*
X484Y189D01*
X482Y189D01*
X482Y187D01*
X480Y187D01*
X480Y185D01*
X478Y185D01*
X478Y183D01*
X474Y183D01*
X474Y181D01*
X472Y181D01*
X472Y179D01*
X470Y179D01*
X470Y177D01*
X468Y177D01*
X468Y175D01*
X466Y175D01*
X466Y173D01*
X464Y173D01*
X464Y171D01*
X460Y171D01*
X460Y169D01*
X458Y169D01*
X458Y167D01*
X456Y167D01*
X456Y165D01*
X454Y165D01*
X454Y163D01*
X452Y163D01*
X452Y161D01*
X450Y161D01*
X450Y159D01*
X446Y159D01*
X446Y157D01*
X444Y157D01*
X444Y155D01*
X442Y155D01*
X442Y153D01*
X440Y153D01*
X440Y131D01*
X526Y131D01*
X526Y129D01*
X534Y129D01*
X534Y127D01*
X538Y127D01*
X538Y125D01*
X542Y125D01*
X542Y123D01*
X544Y123D01*
X544Y121D01*
X548Y121D01*
X548Y119D01*
X550Y119D01*
X550Y117D01*
X552Y117D01*
X552Y115D01*
X554Y115D01*
X554Y113D01*
X556Y113D01*
X556Y109D01*
X558Y109D01*
X558Y107D01*
X560Y107D01*
X560Y103D01*
X562Y103D01*
X562Y101D01*
X720Y101D01*
X720Y103D01*
X710Y103D01*
X710Y105D01*
X706Y105D01*
X706Y107D01*
X702Y107D01*
X702Y109D01*
X698Y109D01*
X698Y111D01*
X696Y111D01*
X696Y113D01*
X692Y113D01*
X692Y115D01*
X690Y115D01*
X690Y117D01*
X688Y117D01*
X688Y121D01*
X686Y121D01*
X686Y123D01*
X684Y123D01*
X684Y125D01*
X682Y125D01*
X682Y129D01*
X680Y129D01*
X680Y133D01*
X678Y133D01*
X678Y141D01*
X676Y141D01*
X676Y163D01*
X678Y163D01*
X678Y169D01*
X680Y169D01*
X680Y173D01*
X682Y173D01*
X682Y177D01*
X684Y177D01*
X684Y181D01*
X686Y181D01*
X686Y183D01*
X688Y183D01*
X688Y185D01*
X690Y185D01*
X690Y187D01*
X692Y187D01*
X692Y189D01*
X694Y189D01*
X694Y191D01*
X696Y191D01*
X696Y193D01*
X700Y193D01*
X700Y195D01*
X704Y195D01*
X704Y197D01*
X708Y197D01*
X708Y199D01*
X714Y199D01*
X714Y201D01*
X496Y201D01*
G37*
D02*
G36*
X738Y201D02*
X738Y199D01*
X744Y199D01*
X744Y197D01*
X748Y197D01*
X748Y195D01*
X752Y195D01*
X752Y193D01*
X754Y193D01*
X754Y191D01*
X756Y191D01*
X756Y189D01*
X760Y189D01*
X760Y187D01*
X762Y187D01*
X762Y185D01*
X764Y185D01*
X764Y181D01*
X766Y181D01*
X766Y179D01*
X768Y179D01*
X768Y175D01*
X770Y175D01*
X770Y173D01*
X772Y173D01*
X772Y167D01*
X774Y167D01*
X774Y157D01*
X776Y157D01*
X776Y145D01*
X774Y145D01*
X774Y135D01*
X772Y135D01*
X772Y131D01*
X770Y131D01*
X770Y127D01*
X768Y127D01*
X768Y123D01*
X766Y123D01*
X766Y121D01*
X764Y121D01*
X764Y119D01*
X762Y119D01*
X762Y117D01*
X760Y117D01*
X760Y115D01*
X758Y115D01*
X758Y113D01*
X756Y113D01*
X756Y111D01*
X754Y111D01*
X754Y109D01*
X750Y109D01*
X750Y107D01*
X746Y107D01*
X746Y105D01*
X742Y105D01*
X742Y103D01*
X732Y103D01*
X732Y101D01*
X814Y101D01*
X814Y201D01*
X738Y201D01*
G37*
D02*
G36*
X914Y193D02*
X914Y191D01*
X1530Y191D01*
X1530Y193D01*
X914Y193D01*
G37*
D02*
G36*
X914Y193D02*
X914Y191D01*
X1530Y191D01*
X1530Y193D01*
X914Y193D01*
G37*
D02*
G36*
X2274Y193D02*
X2274Y191D01*
X2482Y191D01*
X2482Y193D01*
X2274Y193D01*
G37*
D02*
G36*
X2274Y193D02*
X2274Y191D01*
X2482Y191D01*
X2482Y193D01*
X2274Y193D01*
G37*
D02*
G36*
X914Y191D02*
X914Y119D01*
X1460Y119D01*
X1460Y117D01*
X1468Y117D01*
X1468Y115D01*
X1472Y115D01*
X1472Y113D01*
X1474Y113D01*
X1474Y111D01*
X1478Y111D01*
X1478Y109D01*
X1480Y109D01*
X1480Y107D01*
X1482Y107D01*
X1482Y105D01*
X1484Y105D01*
X1484Y103D01*
X1486Y103D01*
X1486Y101D01*
X1488Y101D01*
X1488Y97D01*
X1490Y97D01*
X1490Y95D01*
X1512Y95D01*
X1512Y99D01*
X1514Y99D01*
X1514Y101D01*
X1516Y101D01*
X1516Y103D01*
X1518Y103D01*
X1518Y105D01*
X1520Y105D01*
X1520Y107D01*
X1522Y107D01*
X1522Y109D01*
X1524Y109D01*
X1524Y111D01*
X1526Y111D01*
X1526Y113D01*
X1530Y113D01*
X1530Y191D01*
X914Y191D01*
G37*
D02*
G36*
X2274Y191D02*
X2274Y119D01*
X2360Y119D01*
X2360Y117D01*
X2368Y117D01*
X2368Y115D01*
X2372Y115D01*
X2372Y113D01*
X2374Y113D01*
X2374Y111D01*
X2378Y111D01*
X2378Y109D01*
X2380Y109D01*
X2380Y107D01*
X2382Y107D01*
X2382Y105D01*
X2384Y105D01*
X2384Y103D01*
X2386Y103D01*
X2386Y101D01*
X2388Y101D01*
X2388Y97D01*
X2390Y97D01*
X2390Y95D01*
X2412Y95D01*
X2412Y99D01*
X2414Y99D01*
X2414Y101D01*
X2416Y101D01*
X2416Y103D01*
X2418Y103D01*
X2418Y105D01*
X2420Y105D01*
X2420Y107D01*
X2422Y107D01*
X2422Y109D01*
X2424Y109D01*
X2424Y111D01*
X2426Y111D01*
X2426Y113D01*
X2430Y113D01*
X2430Y115D01*
X2434Y115D01*
X2434Y117D01*
X2442Y117D01*
X2442Y119D01*
X2454Y119D01*
X2454Y139D01*
X2452Y139D01*
X2452Y141D01*
X2450Y141D01*
X2450Y145D01*
X2448Y145D01*
X2448Y153D01*
X2446Y153D01*
X2446Y159D01*
X2448Y159D01*
X2448Y167D01*
X2450Y167D01*
X2450Y171D01*
X2452Y171D01*
X2452Y175D01*
X2454Y175D01*
X2454Y177D01*
X2456Y177D01*
X2456Y179D01*
X2458Y179D01*
X2458Y181D01*
X2462Y181D01*
X2462Y183D01*
X2466Y183D01*
X2466Y185D01*
X2482Y185D01*
X2482Y191D01*
X2274Y191D01*
G37*
D02*
G36*
X136Y173D02*
X136Y171D01*
X162Y171D01*
X162Y173D01*
X136Y173D01*
G37*
D02*
G36*
X136Y171D02*
X136Y169D01*
X398Y169D01*
X398Y171D01*
X136Y171D01*
G37*
D02*
G36*
X136Y171D02*
X136Y169D01*
X398Y169D01*
X398Y171D01*
X136Y171D01*
G37*
D02*
G36*
X136Y169D02*
X136Y165D01*
X138Y165D01*
X138Y161D01*
X140Y161D01*
X140Y159D01*
X142Y159D01*
X142Y157D01*
X144Y157D01*
X144Y155D01*
X146Y155D01*
X146Y153D01*
X148Y153D01*
X148Y151D01*
X150Y151D01*
X150Y149D01*
X152Y149D01*
X152Y147D01*
X154Y147D01*
X154Y145D01*
X156Y145D01*
X156Y143D01*
X160Y143D01*
X160Y141D01*
X162Y141D01*
X162Y139D01*
X164Y139D01*
X164Y137D01*
X166Y137D01*
X166Y135D01*
X168Y135D01*
X168Y133D01*
X170Y133D01*
X170Y131D01*
X326Y131D01*
X326Y129D01*
X334Y129D01*
X334Y127D01*
X338Y127D01*
X338Y125D01*
X342Y125D01*
X342Y123D01*
X344Y123D01*
X344Y121D01*
X348Y121D01*
X348Y119D01*
X350Y119D01*
X350Y117D01*
X352Y117D01*
X352Y115D01*
X354Y115D01*
X354Y113D01*
X356Y113D01*
X356Y109D01*
X376Y109D01*
X376Y111D01*
X378Y111D01*
X378Y113D01*
X380Y113D01*
X380Y115D01*
X382Y115D01*
X382Y117D01*
X384Y117D01*
X384Y119D01*
X386Y119D01*
X386Y121D01*
X388Y121D01*
X388Y123D01*
X392Y123D01*
X392Y125D01*
X396Y125D01*
X396Y157D01*
X398Y157D01*
X398Y169D01*
X136Y169D01*
G37*
D02*
G36*
X172Y131D02*
X172Y129D01*
X176Y129D01*
X176Y127D01*
X178Y127D01*
X178Y125D01*
X180Y125D01*
X180Y123D01*
X182Y123D01*
X182Y121D01*
X186Y121D01*
X186Y119D01*
X188Y119D01*
X188Y117D01*
X190Y117D01*
X190Y115D01*
X194Y115D01*
X194Y113D01*
X196Y113D01*
X196Y111D01*
X200Y111D01*
X200Y109D01*
X202Y109D01*
X202Y107D01*
X204Y107D01*
X204Y105D01*
X208Y105D01*
X208Y103D01*
X210Y103D01*
X210Y101D01*
X214Y101D01*
X214Y99D01*
X218Y99D01*
X218Y97D01*
X220Y97D01*
X220Y95D01*
X224Y95D01*
X224Y93D01*
X228Y93D01*
X228Y91D01*
X232Y91D01*
X232Y89D01*
X234Y89D01*
X234Y87D01*
X238Y87D01*
X238Y85D01*
X242Y85D01*
X242Y83D01*
X246Y83D01*
X246Y81D01*
X268Y81D01*
X268Y93D01*
X270Y93D01*
X270Y101D01*
X272Y101D01*
X272Y105D01*
X274Y105D01*
X274Y107D01*
X276Y107D01*
X276Y111D01*
X278Y111D01*
X278Y113D01*
X280Y113D01*
X280Y115D01*
X282Y115D01*
X282Y117D01*
X284Y117D01*
X284Y119D01*
X286Y119D01*
X286Y121D01*
X288Y121D01*
X288Y123D01*
X292Y123D01*
X292Y125D01*
X296Y125D01*
X296Y127D01*
X300Y127D01*
X300Y129D01*
X306Y129D01*
X306Y131D01*
X172Y131D01*
G37*
D02*
G36*
X440Y131D02*
X440Y125D01*
X442Y125D01*
X442Y123D01*
X444Y123D01*
X444Y121D01*
X448Y121D01*
X448Y119D01*
X450Y119D01*
X450Y117D01*
X452Y117D01*
X452Y115D01*
X454Y115D01*
X454Y113D01*
X456Y113D01*
X456Y109D01*
X476Y109D01*
X476Y111D01*
X478Y111D01*
X478Y113D01*
X480Y113D01*
X480Y115D01*
X482Y115D01*
X482Y117D01*
X484Y117D01*
X484Y119D01*
X486Y119D01*
X486Y121D01*
X488Y121D01*
X488Y123D01*
X492Y123D01*
X492Y125D01*
X496Y125D01*
X496Y127D01*
X500Y127D01*
X500Y129D01*
X506Y129D01*
X506Y131D01*
X440Y131D01*
G37*
D02*
G36*
X914Y119D02*
X914Y101D01*
X1106Y101D01*
X1106Y119D01*
X914Y119D01*
G37*
D02*
G36*
X1196Y119D02*
X1196Y101D01*
X1216Y101D01*
X1216Y103D01*
X1218Y103D01*
X1218Y105D01*
X1220Y105D01*
X1220Y107D01*
X1222Y107D01*
X1222Y109D01*
X1224Y109D01*
X1224Y111D01*
X1226Y111D01*
X1226Y113D01*
X1230Y113D01*
X1230Y115D01*
X1234Y115D01*
X1234Y117D01*
X1242Y117D01*
X1242Y119D01*
X1196Y119D01*
G37*
D02*
G36*
X1260Y119D02*
X1260Y117D01*
X1268Y117D01*
X1268Y115D01*
X1272Y115D01*
X1272Y113D01*
X1274Y113D01*
X1274Y111D01*
X1278Y111D01*
X1278Y109D01*
X1280Y109D01*
X1280Y107D01*
X1282Y107D01*
X1282Y105D01*
X1284Y105D01*
X1284Y103D01*
X1286Y103D01*
X1286Y101D01*
X1288Y101D01*
X1288Y97D01*
X1290Y97D01*
X1290Y95D01*
X1312Y95D01*
X1312Y99D01*
X1314Y99D01*
X1314Y101D01*
X1316Y101D01*
X1316Y103D01*
X1318Y103D01*
X1318Y105D01*
X1320Y105D01*
X1320Y107D01*
X1322Y107D01*
X1322Y109D01*
X1324Y109D01*
X1324Y111D01*
X1326Y111D01*
X1326Y113D01*
X1330Y113D01*
X1330Y115D01*
X1334Y115D01*
X1334Y117D01*
X1342Y117D01*
X1342Y119D01*
X1260Y119D01*
G37*
D02*
G36*
X1360Y119D02*
X1360Y117D01*
X1368Y117D01*
X1368Y115D01*
X1372Y115D01*
X1372Y113D01*
X1374Y113D01*
X1374Y111D01*
X1378Y111D01*
X1378Y109D01*
X1380Y109D01*
X1380Y107D01*
X1382Y107D01*
X1382Y105D01*
X1384Y105D01*
X1384Y103D01*
X1386Y103D01*
X1386Y101D01*
X1388Y101D01*
X1388Y97D01*
X1390Y97D01*
X1390Y95D01*
X1412Y95D01*
X1412Y99D01*
X1414Y99D01*
X1414Y101D01*
X1416Y101D01*
X1416Y103D01*
X1418Y103D01*
X1418Y105D01*
X1420Y105D01*
X1420Y107D01*
X1422Y107D01*
X1422Y109D01*
X1424Y109D01*
X1424Y111D01*
X1426Y111D01*
X1426Y113D01*
X1430Y113D01*
X1430Y115D01*
X1434Y115D01*
X1434Y117D01*
X1442Y117D01*
X1442Y119D01*
X1360Y119D01*
G37*
D02*
G36*
X2274Y119D02*
X2274Y111D01*
X2278Y111D01*
X2278Y109D01*
X2280Y109D01*
X2280Y107D01*
X2282Y107D01*
X2282Y105D01*
X2284Y105D01*
X2284Y103D01*
X2286Y103D01*
X2286Y101D01*
X2288Y101D01*
X2288Y97D01*
X2290Y97D01*
X2290Y95D01*
X2312Y95D01*
X2312Y99D01*
X2314Y99D01*
X2314Y101D01*
X2316Y101D01*
X2316Y103D01*
X2318Y103D01*
X2318Y105D01*
X2320Y105D01*
X2320Y107D01*
X2322Y107D01*
X2322Y109D01*
X2324Y109D01*
X2324Y111D01*
X2326Y111D01*
X2326Y113D01*
X2330Y113D01*
X2330Y115D01*
X2334Y115D01*
X2334Y117D01*
X2342Y117D01*
X2342Y119D01*
X2274Y119D01*
G37*
D02*
G36*
X562Y101D02*
X562Y99D01*
X1106Y99D01*
X1106Y101D01*
X562Y101D01*
G37*
D02*
G36*
X562Y101D02*
X562Y99D01*
X1106Y99D01*
X1106Y101D01*
X562Y101D01*
G37*
D02*
G36*
X562Y101D02*
X562Y99D01*
X1106Y99D01*
X1106Y101D01*
X562Y101D01*
G37*
D02*
G36*
X562Y99D02*
X562Y97D01*
X564Y97D01*
X564Y89D01*
X566Y89D01*
X566Y75D01*
X564Y75D01*
X564Y67D01*
X562Y67D01*
X562Y61D01*
X560Y61D01*
X560Y41D01*
X1106Y41D01*
X1106Y99D01*
X562Y99D01*
G37*
D02*
G36*
X2496Y135D02*
X2496Y133D01*
X2494Y133D01*
X2494Y131D01*
X2490Y131D01*
X2490Y129D01*
X2484Y129D01*
X2484Y127D01*
X2480Y127D01*
X2480Y107D01*
X2482Y107D01*
X2482Y105D01*
X2484Y105D01*
X2484Y103D01*
X2486Y103D01*
X2486Y101D01*
X2488Y101D01*
X2488Y97D01*
X2490Y97D01*
X2490Y95D01*
X2512Y95D01*
X2512Y99D01*
X2514Y99D01*
X2514Y101D01*
X2516Y101D01*
X2516Y103D01*
X2518Y103D01*
X2518Y105D01*
X2520Y105D01*
X2520Y107D01*
X2522Y107D01*
X2522Y109D01*
X2524Y109D01*
X2524Y111D01*
X2526Y111D01*
X2526Y113D01*
X2530Y113D01*
X2530Y115D01*
X2534Y115D01*
X2534Y135D01*
X2496Y135D01*
G37*
D02*
G36*
X145Y203D02*
X190Y203D01*
X190Y171D01*
X145Y171D01*
X145Y203D01*
G37*
D02*
G36*
X116Y244D02*
X148Y244D01*
X148Y199D01*
X116Y199D01*
X116Y244D01*
G37*
D02*
G36*
X186Y244D02*
X218Y244D01*
X218Y199D01*
X186Y199D01*
X186Y244D01*
G37*
D02*
G36*
X293Y135D02*
X338Y135D01*
X338Y105D01*
X293Y105D01*
X293Y135D01*
G37*
D02*
G36*
X293Y67D02*
X338Y67D01*
X338Y39D01*
X293Y39D01*
X293Y67D01*
G37*
D02*
G36*
X264Y108D02*
X296Y108D01*
X296Y63D01*
X264Y63D01*
X264Y108D01*
G37*
D02*
G36*
X839Y135D02*
X884Y135D01*
X884Y101D01*
X839Y101D01*
X839Y135D01*
G37*
D02*
G36*
X880Y176D02*
X914Y176D01*
X914Y131D01*
X880Y131D01*
X880Y176D01*
G37*
D02*
G36*
X1429Y295D02*
X1474Y295D01*
X1474Y263D01*
X1429Y263D01*
X1429Y295D01*
G37*
D02*
G36*
X1400Y266D02*
X1432Y266D01*
X1432Y221D01*
X1400Y221D01*
X1400Y266D01*
G37*
D02*
G36*
X904Y735D02*
X947Y735D01*
X947Y711D01*
X904Y711D01*
X904Y735D01*
G37*
D02*
G36*
X904Y673D02*
X947Y673D01*
X947Y643D01*
X904Y643D01*
X904Y673D01*
G37*
D02*
G36*
X876Y713D02*
X906Y713D01*
X906Y670D01*
X876Y670D01*
X876Y713D01*
G37*
D02*
G36*
X944Y713D02*
X974Y713D01*
X974Y670D01*
X944Y670D01*
X944Y713D01*
G37*
D02*
G36*
X1429Y61D02*
X1470Y61D01*
X1470Y35D01*
X1429Y35D01*
X1429Y61D01*
G37*
D02*
G36*
X1229Y717D02*
X1270Y717D01*
X1270Y693D01*
X1229Y693D01*
X1229Y717D01*
G37*
D02*
G36*
X1229Y659D02*
X1270Y659D01*
X1270Y629D01*
X1229Y629D01*
X1229Y659D01*
G37*
D02*
G04 End of Copper1*
M02*