; NON-PLATED HOLES START AT T1
; THROUGH (PLATED) HOLES START AT T100
M48
INCH
T1C0.078740
T100C0.036000
T101C0.040000
T102C0.015748
T103C0.038000
%
T1
X029111Y005694
X029137Y001832
T100
X019508Y000742
X022508Y000742
X016508Y006742
X012508Y000742
X014508Y000742
X018508Y000742
X017508Y000742
X020508Y006742
X025508Y000742
X024508Y000742
X023508Y006742
X019508Y006742
X024508Y006742
X014508Y006742
X020508Y000742
X023508Y000742
X017508Y006742
X025508Y006742
X015508Y006742
X013508Y000742
X015508Y000742
X011508Y000742
X011508Y006742
X012508Y006742
X013508Y006742
X018508Y006742
X021508Y000742
X016508Y000742
X021508Y006742
X022508Y006742
T101
X007255Y001515
X009267Y006903
X009267Y005123
X006707Y005123
X006707Y006903
X008633Y001515
T102
X011786Y003002
X010905Y003784
X024763Y001563
X024722Y002901
X009459Y002983
X025049Y002237
T103
X029113Y003748
X003165Y000822
X021531Y002414
X018531Y002414
X016531Y002414
X017531Y002414
X001699Y003202
X023531Y002414
X019531Y002414
X001699Y002202
X004165Y000822
X014531Y002414
X005165Y000822
X029113Y004748
X020531Y002414
X001699Y004202
X029113Y002748
X015531Y002414
X022531Y002414
X001699Y005202
T00
M30
